/* XPM */
static char *b80398d6e1c4424ec5cf904133e9c33brZpx7VjBsJIxkw3n[] = {
/* columns rows colors chars-per-pixel */
"60 60 213 2 ",
"   c None",
".  c #000000",
"X  c #03030C",
"o  c #0B0600",
"O  c #130300",
"+  c #0D1305",
"@  c #13120B",
"#  c #0D0013",
"$  c #140C17",
"%  c #1D1B1F",
"&  c #181815",
"*  c #22191B",
"=  c #1C1822",
"-  c #18042F",
";  c #261D28",
":  c #2B003C",
">  c #2B232D",
",  c #28252B",
"<  c #2D2532",
"1  c #2F2A37",
"2  c #312A34",
"3  c #332C3B",
"4  c #382C3C",
"5  c #312736",
"6  c #32343B",
"7  c #3A333E",
"8  c #3B3C39",
"9  c #332E43",
"0  c #392F40",
"q  c #3D3442",
"w  c #393646",
"e  c #2B2741",
"r  c #402F44",
"t  c #423B44",
"y  c #44354C",
"u  c #423B4B",
"i  c #4B3D55",
"p  c #4C3E59",
"a  c #453A50",
"s  c #523F5C",
"d  c #532969",
"f  c #38434B",
"g  c #3E4552",
"h  c #464447",
"j  c #4E4253",
"k  c #494557",
"l  c #53425D",
"z  c #554A5B",
"x  c #504854",
"c  c #435158",
"v  c #5C5B5D",
"b  c #575459",
"n  c #4C4A62",
"m  c #554261",
"M  c #594665",
"N  c #5B4A65",
"B  c #524E69",
"V  c #5D4B6A",
"C  c #584865",
"Z  c #4D5568",
"A  c #565568",
"S  c #5F4F70",
"D  c #5E5575",
"F  c #585E7A",
"G  c #4F5C73",
"H  c #624D6C",
"J  c #64526E",
"K  c #635868",
"L  c #644F70",
"P  c #655271",
"I  c #6A5574",
"U  c #6C5977",
"Y  c #64587A",
"T  c #6E5B79",
"R  c #635877",
"E  c #725E7C",
"W  c #4C626B",
"Q  c #51626E",
"!  c #556A75",
"~  c #586876",
"^  c #5D707E",
"/  c #6A626D",
"(  c #6A657C",
")  c #73617D",
"_  c #756C79",
"`  c #737076",
"'  c #5E6280",
"]  c #5D7884",
"[  c #6E6585",
"{  c #686887",
"}  c #756382",
"|  c #796685",
" . c #7C6985",
".. c #766788",
"X. c #766C8B",
"o. c #7C6B89",
"O. c #766888",
"+. c #637A87",
"@. c #7A718F",
"#. c #7F7386",
"$. c #7C6F90",
"%. c #697E90",
"&. c #7B7493",
"*. c #747692",
"=. c #826D8C",
"-. c #85718E",
";. c #827888",
":. c #867291",
">. c #8A7593",
",. c #8D7A95",
"<. c #837C9A",
"1. c #8E7B98",
"2. c #917D9A",
"3. c #866F96",
"4. c #906EA1",
"5. c #A57FB8",
"6. c #68818F",
"7. c #6D8695",
"8. c #718999",
"9. c #7B859E",
"0. c #778FA1",
"q. c #7A94A7",
"w. c #7F9DB0",
"e. c #89868B",
"r. c #8C8392",
"t. c #83809E",
"y. c #95829D",
"u. c #958E9B",
"i. c #938898",
"p. c #97929B",
"a. c #858AA7",
"s. c #898DAB",
"d. c #8887A5",
"f. c #9784A0",
"g. c #9986A2",
"h. c #9D8BA5",
"j. c #9E8DA9",
"k. c #8591AB",
"l. c #8992AD",
"z. c #839BAF",
"x. c #9E95A3",
"c. c #849CB1",
"v. c #8C9AB4",
"b. c #8D96B2",
"n. c #909DB7",
"m. c #A18FA9",
"M. c #A08DA7",
"N. c #A194A7",
"B. c #A493AC",
"V. c #A69CAC",
"C. c #A999AF",
"Z. c #A498AA",
"A. c #A986B4",
"S. c #A997B1",
"D. c #AC9CB4",
"F. c #A79BB0",
"G. c #B09FB8",
"H. c #8BA5BA",
"J. c #89A7BD",
"K. c #91A3BD",
"L. c #A7A1AC",
"P. c #AEA3B5",
"I. c #AFA0B8",
"U. c #B1A0B7",
"Y. c #B3A4BA",
"T. c #B6A9BE",
"R. c #B8AABF",
"E. c #B2ADB7",
"W. c #B9B4BD",
"Q. c #91A8C1",
"!. c #93B0C7",
"~. c #BAACC1",
"^. c #B9A5C4",
"/. c #BDB2C5",
"(. c #BFB5C6",
"). c #C796D6",
"_. c #C0B3C7",
"`. c #C1BBC4",
"'. c #C2B5C9",
"]. c #C6BACC",
"[. c #C9BCCE",
"{. c #CBBED1",
"}. c #CFB3DC",
"|. c #D4B6DE",
" X c #D6A8DE",
".X c #CFA1E0",
"XX c #EAB7FA",
"oX c #C9C2CF",
"OX c #C7C1CC",
"+X c #CDC3D4",
"@X c #CEC9D3",
"#X c #D0C5D7",
"$X c #D1C9D6",
"%X c #D1C7D8",
"&X c #D4CBDB",
"*X c #D8CEDF",
"=X c #D9D0DE",
"-X c #D6D2DB",
";X c #DCD4E3",
":X c #DED8E4",
">X c #E0D7E6",
",X c #E1D9E7",
"<X c #E4DCEA",
"1X c #FCC0FF",
"2X c #E7E1ED",
"3X c #E9E2EE",
"4X c #ECE5F2",
"5X c #EEE9F4",
"6X c #F0EAF6",
"7X c #F4EEFA",
"8X c #F7F1FD",
"9X c #FAF4FF",
"0X c #FEF8FF",
/* pixels */
"                                                    . + 8 x 7 t v v h h                                                 ",
"                                              . > N  .>.,.r.,.>.;. .) N h @                                             ",
"                                          X N  .i.B.D.T.T.T.Y.P.B.h.f.>.o.K x <                                         ",
"                                        j ) u.G./.[.{.+X+X+X[.'./.^.D.B.f.,.| N q                                       ",
"                                      j ,.D./.{.+X*X*X;X;X;X-X&X+X].~.I.B.y.,.=.I 7                                     ",
"                                    j f.Y._.{.*X;X,X<X<X2X<X<X:X;X&X{.(.Y.B.2.:.=.T 4                                   ",
"                                  q i.D._.+X*X<X<X4X4X4X4X4X4X2X,X;X*X+X_.Y.m.,.=. .T 4                                 ",
"                                q >.D./.+X;X<X<X4X4X6X6X6X6X5X4X4X<X;X*X{.~.F.y.-. . .J q                               ",
"                                A B.R.+X;X,X4X4X5X6X7X7X7X7X6X5X5X3X2X;X&X].T.h.>.o.| | z %                             ",
"                              x 2.~.+X;X<X4X4X5X6X7X7X7X7X7X8X7X6X4X3X<X=X+X/.B.2.=.|  .T j                             ",
"                              U C.].OXOX:X4X6X7X7X7X8X7X8X8X7X7X7X5X4X3X<X&X'.F.y.=...} | J +                           ",
"                            X #.R.U./ 2 u.;X8X7X7X8X7X8X8X5X@X+X,X6X5X3X2X=X[.P.g.:. .) O.T t                           ",
"                            l h.E.b % . . u.4X9X7X8X8X8X<Xe.8 & ` [.8X3X<X>X{.T.h.:. .} ..) S                           ",
"                            _ F.Z.. % 2 . v `.0X7X7X0X2Xp., % $ . e.=X7X3X>X#X~.j.:. .E ) | ( &                         ",
"                            r.P.i.. ; ; - w p.9X7X8X8X`.. . , 2 . v W.8X<X<X%X~.M.:. .} E | O.f                         ",
"                          . g.R.r.. ; & 4.A.P.5X8X0X2XF.d M = > . h L.7X3X>X#X^.h.3.} } U } @.Z                         ",
"                          . h.(.u.. o e .XXX}.4X7X0X-X^.).A.5 < . h L.7X2X;X+XT.f.:...E U } o.(                         ",
"                          # x.{.L.. @ 9 ).XX%X5X7X0X&X}.XX X4 5 . b E.7X2X;X{.I.y.o.} E U } &.*.                        ",
"                          r N.%XOXx . 7 d >.OX9X5X0X-X^.).5.; r . ` @X7X,X*X'.B.1. .} T U ) &.9.6                       ",
"                          x B.&X:X/.4 . . p.4X9X7X9X4XL.: s y $ . N.4X3X:X%X~.j.:.| E E U ( @.a.g                       ",
"                          K D.&X<X2X(.L.E.:X9X8X7X8X8X@Xv . . . i.*X5X<X*X[.G.2.=.} E T T T @.k.c                       ",
"                          _ Y.&X:X4X7X3X6X9X5XW.`.3X9X6X[.e.;.V.*X4X3X;X&X/.S.1.| } T T T T &.k.Z                       ",
"                        . -.T.&X:X3X6X8X8X8X@X. . oX7X9X8X2X,X6X6X4X,X*X[.T.h.-.} E T T U I X.k.Q                       ",
"                h K _ j w ,.~.%X<X3X5X5X7X7X@X. . E.3X8X4X7X7X4X4X<X;X&X(.B.2.=.} T T T T T X.k.Q                       ",
"              1 F.;X;X+XY.B.~.+X,X3X4X6X6X7X3Xp.h $X6X7X4X4X4X4X4X,X*X+XR.j.1.=...T T T T T o.k.~                       ",
"            . h.=X4X4X<X+XT.~.+X>X3X4X6X6X7X6X<X;X4X6X5X4X4X4X3X<X;X&X'.Y.h.1.3.=.} T T T T X.k.^                       ",
"            / ].<X2X<X:X%X~.~.+X;X3X4X6X6X6X7X7X8X6X6X6X4X4X3X<X:X*X+X~.F.g.g.g.,.} T T T T X.k.]                       ",
"          q x.&X:X=X-X$X+X~.~.[.;X<X3X4X4X6X5X5X6X5X5X4X4X3X<X,X;X&X{.~.U.D.D.B.2.| T T T T X.l.%.                      ",
"          K ~.%X*X&X$X$X].R.~.oX*X,X3X4X4X5X6X6X6X4X4X4X3X3X<X;X*X%X{.+X{._.^.B.1.| E E T T X.l.8.                      ",
"        x r.].+X+X&X$X+X(.I.Y.].*X:X<X3X4X4X4X5X4X4X4X4X<X<X>X=X%X%X*X;X*X[.G.g.-.| E E T T X.s.0.                      ",
"        z C.].{.+X@X+X[.~.P.Y.(.%X;X<X2X4X4X4X4X4X4X4X<X<X;X;X&X%X*X,X;X#X^.B.2.=.| E E T T ..a.q.W                     ",
"        K I.].[.+X+X].~.T.F.I./.+X;X:X<X<X3X4X3X4X3X<X<X;X;X*X+X+X;X,X*X'.D.g.>.=.} ) T T T ..k.H.W                     ",
"         .T.(.].'.`./.Y.D.B.D.~.[.*X;X>X<X2X3X3X3X2X<X>X=X=X&X[.%X;X&X[.T.B.2.=.| E E T T T } 2.H.Q                     ",
"      z >.T.W.~.R.Y.D.C.N.M.C.R.[.$X*X:X<X<X<X<X<X,X>X;X*X*X{.[.&X*X{.~.D.M.>.| T U I U T T ..d.J.!                     ",
"      N ,.Y.U.Y.G.C.h.h.y.g.Z.Y._.@X&X=X:X>X<X,X>X:X;X=X*X#X].[.&X+X/.Y.m.2.=.E U U I I I T [ <.Q.!                     ",
"      b ,.B.B.C.M.y.y.,.,.2.M.U._.[.$X*X;X;X:X:X>X;X*X*X$X|._.{.%X{.R.F.M.>.=.T U I I L I U } <.Q.^                     ",
"      z -.g.g.g.y.,.>.:.=.>.g.D.~.].+X$X*X;X;X;X;X*X*X&X#X+X_.{.+X].Y.B.y.:.| I I I P P I T } $.K.+.                    ",
"      i } 2.,.1.-. . . .| =.y.C.Y._.[.#X$X&X*X*X*X*X&X%X#X[.~.{.+X(.D.h.2.=.E I I I P L I U } $.K.%.                    ",
"      2 N =.>.<.*.X.} [ T ) 2.Z.U._.].{.$X$X&X&X$X&X$X#X{.].Y.{.{.~.B.f.>. .E I L L H H L U } ..n.0.!                   ",
"        4 J ..X.{ ' { [ R T >.m.D.R._.[.{.+X#X&X$X#X#X#X{.'.G.'._.D.g.1.=.| U L H H H H L I T ..l.w.]                   ",
"          < n Z g w A { B D :.h.S.Y.~._.].[.{.{.#X{.#X{.{.'.D.^.G.j.>.=.} E U L H H H H H L U | s.H.+.                  ",
"                    & 9 = z ;.g.m.D.Y.~._.].].[.{.{.{.{.{._.m.S.m.2...U H L P P H H H H H H U } <.K.%.                  ",
"                          l o.f.M.B.G.Y.T._._.'.].].{.'.].'.B.2.1. .H s s s S V H H H H H L U } o.K.7.                  ",
"                          a O.1.y.M.D.D.Y.T.T.~._._.'.'.'._.Y.2.} L M m m s d S s s M M V H P } X.v.0.W                 ",
"                          9 T ,.y.M.B.S.D.G.Y.T.^.~._._._.~.~.m.=.T H M s s s s l m m N M H H ) } s.c.]                 ",
"                          , S =.2.y.M.M.B.S.D.G.U.T.T.T.~.R.T.G.g.=.E L V s s s m m m M M N H E ..<.v.8.                ",
"                          X z  .>.2.y.M.M.m.B.B.D.G.G.Y.T.T.Y.D.M.2.=.I H M m l l m m m M N H I } o.v.0.c               ",
"                            j T -.>.2.y.y.g.y.y.B.S.G.G.G.G.D.S.M.2.=.T H N m m m m m m m M V P [ O.s.v.+.              ",
"                            0 J  .=.,.2.2.2.>.2.g.B.C.D.D.D.S.B.M.2.-.E L M l M m m m m m M V L T ..<.v.w.&             ",
"                            ; l E o.:.>.>.-.=.=.,.h.m.B.B.B.B.m.2.2.:.E I M M s m m m l m m M V P ..$.l.n.%.            ",
"                              q H |  .=.=.=.) ) =.2.g.m.B.m.m.h.g.2.:.| I H s m m m m m l m M V L [ X.<.v.J.Q           ",
"                              > y L E ) E E U E E =.2.h.M.M.h.g.2.2.3.=.U H M m m m m m s m s M V R ..&.a.K.w.~         ",
"                                > y H I L I J P P E -.2.y.g.M.y.2.>.=.=.E H M m V d V m B d s M C L [ &.9.b.!.8.g       ",
"                                  & < i N J R R L J E -.2.y.2.2.1.>.=.| U H N m s s m m C s s m C V R [ &.a.k.^ f       ",
"                                      & > q k B L L L E =.>.>.>.>.=. .E I H N M s s s s m m s m m B R [ *.{ u           ",
"                                              q t H L I E ) | =.| | E U L H V V D ' D S C M M M S L R D n q             ",
"                                                > q j V H U E U U I I I J J R { { ' Z n p p p p p p w w 3               ",
"                                                    5 y l M H H L L H H S S R F G n w 9 3 3 5 3 3 < @                   ",
"                                                      + 2 y i l l l l H l l k 4 O                                       ",
"                                                            8 A h > t x 8 8                                             "
};
