/* XPM */
static char *fe907101b4574c3b883acffd4305816aw1tuIZ5yx6Yr0lVa[] = {
/* columns rows colors chars-per-pixel */
"60 60 62 1 ",
"  c None",
". c #010101",
"X c #090200",
"o c #080708",
"O c #0B0C0B",
"+ c #100E0F",
"@ c #0E110F",
"# c #0F1111",
"$ c #141414",
"% c #181617",
"& c #171817",
"* c #171718",
"= c #161A19",
"- c #1C1C1C",
"; c #201E1F",
": c #22201E",
"> c #201F20",
", c #1F2121",
"< c #232423",
"1 c #292725",
"2 c #262827",
"3 c #292728",
"4 c #2B2C2C",
"5 c #302E2D",
"6 c #333333",
"7 c #353837",
"8 c #373838",
"9 c #3C3C3C",
"0 c #403F3E",
"q c #3F403F",
"w c #3E4040",
"e c #434343",
"r c #484647",
"t c #4C4D4D",
"y c #504E4F",
"u c #535454",
"i c #555857",
"p c #575959",
"a c #5C5C5C",
"s c #626262",
"d c #676968",
"f c #6C6D6D",
"g c #747474",
"h c #797979",
"j c #828282",
"k c #8C8C8C",
"l c #949494",
"z c #9B9B9B",
"x c #A09F9F",
"c c #A3A3A3",
"v c #ABABAB",
"b c #B4B4B4",
"n c #BDBDBD",
"m c #C0BEBE",
"M c #C4C4C4",
"N c #CCCCCC",
"B c #D3D3D3",
"V c #DBDBDB",
"C c #E4E4E4",
"Z c #ECECEC",
"A c #F4F4F4",
"S c #FDFDFD",
/* pixels */
"                                                            ",
"                                                            ",
"                                                            ",
"                                                            ",
"                                                            ",
"                                                            ",
"                                                            ",
"                                                            ",
"                                                            ",
"                                                            ",
"                                                            ",
"                                                            ",
"                                                            ",
"                                                            ",
"                                                            ",
"                                                            ",
"                                                            ",
"                             ASS                            ",
"                            SSSSS AA                        ",
"                           ZSACZSSSSSS                      ",
"                      SSSSSSAMbBZSASSSSA                    ",
"                   SASSSSSASCcgcBCCAZSSSSA                  ",
"                ASSSSSACAVNMbh.acnNVBAAASSSA                ",
"                SSSAZCBMMzbft5.<usjzvNVCAASSSA              ",
"               ASVVVNxfau6a<..o.#3XethvNVBCAASA             ",
"             ASSACmlks.o&*.+$OO<601X.waglvMVVASSZ           ",
"           SSSSZVMkitttr.-4-&4qe99;.OOO29yjvnZASSA          ",
"        ZSSSSZBclf8*=tay94-.=riuup8;OO#ooO5tfznVASSSS       ",
"      ASSSZBnxgi9O..=7tifs8;=wtuss994<-*$$O.-eajbVCSSS      ",
"      ASMMzgsq.o.**o-26igg04474rdse906-<2-,-...<thzbCSS     ",
"     SSMay6....O,<-o266ruse662O4ut9995$-4%*-OO...9jbZSA     ",
"     SSNka<O<-$#oOO$466650e6<#$=<4295-.-4-...-6ajcBASA      ",
"      SSCnkfse-4-$.--,<2-26<O*<:o@O2<%O&4*$6raknVZSSA       ",
"       SSSZBbkastt-o...o-2X.-*O&&,$..+O*49szcvBASSA         ",
"        ZSSSSCnvzlr94....Oo#$<99$$O.O*4skzNAZCSSA           ",
"            ASSZVVgkha9*=-OO.4tt...4fjkvMNCSSSA             ",
"             ASSSAMNBnkse....<-4asjvbmMMVZASZ               ",
"                ASSZZCBvzktt=.3gcvnZCVCASSSA                ",
"                 SSSSSZBVBbvljlmBNCSSASSSSA                 ",
"                   SSSSAAAZCVMMZAZSSSSSS                    ",
"                     ASSSAASACCASSSA A                      ",
"                       AASSSSZASA                           ",
"                         ZSASSSA                            ",
"                                                            ",
"                                                            ",
"                                                            ",
"                                                            ",
"                                                            ",
"                                                            ",
"                                                            ",
"                                                            ",
"                                                            ",
"                                                            ",
"                                                            ",
"                                                            ",
"                                                            ",
"                                                            ",
"                                                            ",
"                                                            ",
"                                                            "
};
