/* XPM */
static char *e706782e8d64498acaf5173f03ed2f86KHOzfgQD0GONe34h[] = {
/* columns rows colors chars-per-pixel */
"60 60 221 2 ",
"   c None",
".  c #010203",
"X  c #0B0303",
"o  c #010608",
"O  c #090708",
"+  c #04090A",
"@  c #0C0909",
"#  c #0C0807",
"$  c #150A09",
"%  c #1C0B09",
"&  c #180705",
"*  c #021314",
"=  c #031C1C",
"-  c #0B1B1A",
";  c #181312",
":  c #17110F",
">  c #220A06",
",  c #250D08",
"<  c #2C0F08",
"1  c #280301",
"2  c #320D05",
"3  c #390803",
"4  c #23120A",
"5  c #2D1009",
"6  c #3D1206",
"7  c #341209",
"8  c #3C1409",
"9  c #361509",
"0  c #2C1B12",
"q  c #271717",
"w  c #371A16",
"e  c #352214",
"r  c #3C2719",
"t  c #002F2E",
"y  c #3C3839",
"u  c #2F2F2C",
"i  c #440B01",
"p  c #490B01",
"a  c #4B0403",
"s  c #5F0000",
"d  c #441105",
"f  c #4A1506",
"g  c #4B1A05",
"h  c #431508",
"j  c #491708",
"k  c #45190D",
"l  c #4B1909",
"z  c #431D06",
"x  c #531D06",
"c  c #4A1E12",
"v  c #6C0600",
"b  c #6C0F00",
"n  c #4E210F",
"m  c #4A2707",
"M  c #522404",
"N  c #552C02",
"B  c #562609",
"V  c #59330A",
"C  c #4E2211",
"Z  c #4C2B1A",
"A  c #512513",
"S  c #532916",
"D  c #552E1A",
"F  c #592D19",
"G  c #49301E",
"H  c #57311D",
"J  c #59331E",
"K  c #6C2D03",
"L  c #642905",
"P  c #712E00",
"I  c #6F3105",
"U  c #733304",
"Y  c #7A3402",
"T  c #7A360C",
"R  c #6E3113",
"E  c #66361B",
"W  c #793818",
"Q  c #422927",
"!  c #5B3621",
"~  c #5D3A23",
"^  c #5C3C2B",
"/  c #553628",
"(  c #55322C",
")  c #613E25",
"_  c #6C3323",
"`  c #753C26",
"'  c #5F4126",
"]  c #5E4128",
"[  c #5D4130",
"{  c #624027",
"}  c #634229",
"|  c #69452A",
" . c #6A482E",
".. c #654735",
"X. c #74493A",
"o. c #5C4944",
"O. c #444949",
"+. c #7C5444",
"@. c #685756",
"#. c #644F49",
"$. c #6E605F",
"%. c #756257",
"&. c #6F6361",
"*. c #7A6D6B",
"=. c #766D6A",
"-. c #7B7676",
";. c #843E1D",
":. c #923F2C",
">. c #8F4506",
",. c #864226",
"<. c #8B4425",
"1. c #8A452C",
"2. c #8C492F",
"3. c #85422A",
"4. c #914A2C",
"5. c #994D2D",
"6. c #874A34",
"7. c #954D33",
"8. c #994E34",
"9. c #914F38",
"0. c #965036",
"q. c #9B5136",
"w. c #9D533A",
"e. c #97533B",
"r. c #A3563B",
"t. c #A5583E",
"y. c #AC5B3E",
"u. c #A15437",
"i. c #B05B3C",
"p. c #8B5948",
"a. c #A65941",
"s. c #AB5C43",
"d. c #91754C",
"f. c #B46145",
"g. c #B46148",
"h. c #B86655",
"j. c #A2795D",
"k. c #BB725D",
"l. c #876C67",
"z. c #9D7162",
"x. c #837979",
"c. c #917F7E",
"v. c #AB7167",
"b. c #C7594A",
"n. c #C1695C",
"m. c #C0684D",
"M. c #CD7166",
"N. c #C47468",
"B. c #D9736B",
"V. c #CF756E",
"C. c #E37D77",
"Z. c #938170",
"A. c #B78467",
"S. c #B98975",
"D. c #AB836F",
"F. c #C3937D",
"G. c #EA817C",
"H. c #E48079",
"J. c #7B8485",
"K. c #868383",
"L. c #8E8A89",
"P. c #918C8C",
"I. c #938584",
"U. c #9C9A9B",
"Y. c #999595",
"T. c #8D9092",
"R. c #A09C9C",
"E. c #A89A9A",
"W. c #B39E9B",
"Q. c #AC9188",
"!. c #AFA09D",
"~. c #B8A79F",
"^. c #A4A3A4",
"/. c #ADABAB",
"(. c #ABA3A3",
"). c #B3A6A5",
"_. c #B2ACAC",
"`. c #B9A9A6",
"'. c #BBB3B3",
"]. c #BCBBBC",
"[. c #B4B5B5",
"{. c #AEB1B1",
"}. c #D49A95",
"|. c #CC9087",
" X c #EA8884",
".X c #F68886",
"XX c #F28D8A",
"oX c #E3928D",
"OX c #D3A39C",
"+X c #CBA89D",
"@X c #E9A19F",
"#X c #C9B2AD",
"$X c #C5BABA",
"%X c #CABEBE",
"&X c #C4B6B5",
"*X c #DBA4A4",
"=X c #EEB3B2",
"-X c #C5C4C4",
";X c #CCC3C3",
":X c #CACACA",
">X c #C7C9CA",
",X c #D5CCCC",
"<X c #DCCDCC",
"1X c #D6C7C5",
"2X c #DFCFD0",
"3X c #D4D1D1",
"4X c #DDD5D5",
"5X c #E1D4D4",
"6X c #E5DADA",
"7X c #EADDDD",
"8X c #FAD1D1",
"9X c #F0D0D1",
"0X c #EDCBCC",
"qX c #ECE2E2",
"wX c #E4E1E2",
"eX c #F5E5E5",
"rX c #F8E7E7",
"tX c #FAEAEA",
"yX c #FBE8E9",
"uX c #FEF4F4",
"iX c #FFF9F9",
/* pixels */
"                                                                                                                        ",
"    d.                          4X      t.                                                                              ",
"    d.j.W.-X4X,X              %X$X-X;X                                                                                  ",
"          -X,X,X,X:X        ^.P.(.&X;X                                  s.h.                                            ",
"                +X!.E.&X4XU.K.O.K.`.                                      h.n.h.                                        ",
"U U T T W     v v v l.'.,X*.X   ).$X                                          h.M.                                      ",
"  P Y Y T ` ` 6.p.                                                              M.G.                                    ",
"                                                                                  C..X                                  ",
"                                                                                    G..X                                ",
"                                                                                      G.XX                              ",
"                                          A S J J J Z G Z J ) ) E J D                   H.                              ",
"                                    S J ) ) | { G 0 4 4 0 e / |  .| ) ) F               M..X                            ",
"                                p n E ) } | | ] G e r r r e G ' | } | | | ) !             B.                            ",
"                              c F ) ) ) } } } } ' { { { ' ' ' { } } } } } | } ~ J A         H.                          ",
"                            x F ! ) ) } } } } } } } } | } } } } } ) } } } } ) _ F x f 1     H.                          ",
"                            l F ~ ~ } } } } } } } } } } } } } } } } } } } ) ! J F S f J ..  M.                          ",
"                          j l D ! ) } } } } } } ] } } } ^ { { } ) } } } } } ) ) } ^ m +.z.Z.g.V.                        ",
"                        c x J J ! ) } } } } } } } } } } } } } } } } } } } } } } }  .m p.S.|.k.k.                        ",
"                      D ~ ! S A ! } } } } } } } } } ) } } } } } } } } } } } } } }  .m ^ z.S.j.A.D.                      ",
"                    ) } } ) ~ J ! { } } } } } } } } } } } } } } } } } } ) } } } } ~ h 3 +.A.D.D.S.A.                    ",
"                  ) | | { } } { ) } } { } } } } } } } } } } } } } } } } } } } } } C / g ..Q.#X`.+XF.S.R.                ",
"                  )  .) ) } } } } { } } } } } } ) } } } } } } } } } } } } } } } ~ S ~ V @.^.,X2X1X#X&X-X&X              ",
"                ! } } } } } } } } } } } } } } } } } } } } } } } } } } } } } } } ~ ^ E ! =.{.4XeX7X2X5XqX6X              ",
"                ) ) } } } } } } } } } } { ~ ~ } } } } } } ) } } } } } } } } ^ ~ { ..V [ J.'.3XrXtXrXrXuXuX'.            ",
"                F J { | { } } } } } } } J D J ' } } } } } } } } } } } ] } } ~ ! }  .N #.Y.-X:XqXrXrXrXtXuX3X            ",
"              C S J } } } } } } } } } } J S D ! } } } } } } } } } } } } } } ] ! } } N =.(.-X-X6XrXrXeXrXtX4X            ",
"              p S ) } } } { } } } } } } } J Z J ) } } } } } } } } } } } } } } ! ^ V ] L.].:X-X4XrXrXrXrXtXeX            ",
"              a D { | { } ) } } } } } } } ~ H H ^ } } } } } } } } } } } ] } } ~ ! N %.^.-X>X-X3XeXrXrXrXtXuX%X          ",
"              p S ) } { } ) ~ } } } } } } | ! C ! } ) } } } } } } } } } } } } ] A N c.[.:X-X-X:XqXtXrXeXtXiX;X          ",
"              i C ! ) ~ } ~ J ' } } { ' { | ~ S D } ~ ) } } } ) } } } } } } } | g o.U.$X:X>X-X:X7XeXtXeXrXiX<X          ",
"              7 f J ~ ! } ) C J } } ' J ~ } { D S ~ ! ~ ~ ~ ! ! } } } } } } } J 3 =.{.:X>X:X:X:XqXrXeXeXrXiX6X          ",
"              0 i A ! ! ! ~ C S J { } ~ H } } H C ! ! Z S C S ~ } } } } } } ' B o.R.].:X-X^.T.K.;XrXuXeXrXuXqX          ",
"              ; d l D J A ~ D l A J { { A ~ ' D j J S 9 k f S { ) } } {  .{ ^ &.U.].-X:X].x.u ( x.;XrXtXrXiX3X          ",
"              o 7 f l l l ! ! l j n J { S D J C 6 C 8 7 i C ! ^ ~ } } { } ) ~ =.].:X>X:X>XY.y L v c.,XtXtXtX_.          ",
"              o < h j d d A S l g f j H S n C k 6 h 2 k p S ! ! ~ } } ~ ) ) ! X.!.>X-X].>X,XR.%.>.b E.eXuX<X*.          ",
"              o % d l l l l l l j j j g l l l l 6 h 7 h f J ! S } } } J ! } ^ :.r.'._.P./.qX7XU.l.B l.,XuX).+.          ",
"              o + 6 g l l j j j j l j j j j l h < 7 8 p C J D D } | ! n ^ ' ^ z.C.v.U.T.L.%XuX7X'.-.-.$XtX(.x.          ",
"              @ o < j l l l l l l j l g l j l 6 < 2 h f l C A S ~ ] l A } { Z @.}.n.v._.^.=.&X2XeX6X%X;XeX%X'.          ",
"              @ o % h l f f j j j j l j j l l 8 % 2 j g l l j l C C j J ~ J g y W.@XV.W.].'.I.).rX7X;X1XqX7X<X          ",
"                o o 5 h h h h h f l j l l l l 5 $ 7 l l j j j j f p C J H n g w J.<X@Xn.`.qX%X%X7X_.W.2X7X7X1X          ",
"                  o $ 7 8 7 7 7 h j j g l l 6 & O 7 l l g j j j j j A S j f k q *.>X9XoXN.<XtXuX5XP.(.qX2X;X            ",
"                  + @ & , , % < 8 f j j l j 2 o # 7 h h j l l j g l l l f k w q $.[.wX8XoXh.1XeXqX5X7XrXrX%X            ",
"                    @ + O # O o , h j 6 l 6 % = ; 2 8 6 j j j j j l l j 6 8 k a u _.wXtX8XG.b.v.|.}.}.}.OX              ",
"                      + o O # o > 7 2 < 9 : = = - % 7 7 j h h l l l h , , 8 c w 1 K.6XuXyX8X=XXX XXX XB.                ",
"                        o . . + $ % $ : ; * = - @ # & 9 h 7 h l l f < $ 5 7 9 q & y ).qXiXuXyX8X0X}.oX                  ",
"                        g m 7 & + * = = *       X + o < 2 7 h h 6 < @ , 8 8   + q . $.;X7XqXqX3X{.Y.                    ",
"                      R <.W B   + -               # # , % < 7 < > @ @           5 Q       &X'.J.t o                     ",
"                      <.i.<.                        , % O & % $                               . . q                     ",
"                    <.u.8.                            4 O . .                                   u w 2                   ",
"                  <.0.t.                              M 8 Z E Y I I I                             R W                   ",
"          ,.8.w.r.r.a.a.w.                        M K x 1 ` 2.W x K K K                             <.<.                ",
"          ;.2.1.5.r.s.s.t.t.f.t.0.r.s.          , z L E c 6.w.3.x A L L                             7.0.8.              ",
"                  2.r.y.4.4.i.s.7.7.r.s.            R 2.6.0.t.w.` ^ ( _                             q.s.f.s.s.t.w.r.w.  ",
"                      4.0.    u.r.  <.w.            T 2.0.t.a.a.r.0.X.9.a.                      <.0.w.r.g.m.f.t.q.r.t.t.",
"                        8.s.  ;.<.                          7.r.0.4.7.2.7.t.s.                P ;.<.    2.8.7.0.0.7.q.  ",
"                          8.                                  7.u.W 4.0.  3.7.                                7.2.3.    ",
"                          ;.                                    t.    7.w.                                              ",
"                                                                8.s.  2.0.                                              ",
"                                                                  0.    1.7.                                            ",
"                                                                  T                                                     "
};
