/* XPM */
static char *_91de2e2ec0b4254f757a5904da8dbc0eHsULFUb5yPx6LKj[] = {
/* columns rows colors chars-per-pixel */
"60 60 217 2 ",
"   c None",
".  c #000000",
"X  c #090209",
"o  c #0A0A0A",
"O  c #070705",
"+  c #190203",
"@  c #021D03",
"#  c #071608",
"$  c #071207",
"%  c #000115",
"&  c #180419",
"*  c #0A1614",
"=  c #141415",
"-  c #1C1C1D",
";  c #19181B",
":  c #2A0200",
">  c #390504",
",  c #2A1414",
"<  c #052803",
"1  c #01360B",
"2  c #1B251B",
"3  c #222C1D",
"4  c #001E27",
"5  c #1E1B20",
"6  c #230221",
"7  c #211F22",
"8  c #1E2220",
"9  c #192923",
"0  c #063A3A",
"q  c #002724",
"w  c #232324",
"e  c #2A2B2B",
"r  c #272824",
"t  c #253826",
"y  c #302E30",
"u  c #343334",
"i  c #3B3B3C",
"p  c #393434",
"a  c #3B2928",
"s  c #5A1F10",
"d  c #530605",
"f  c #620807",
"g  c #720A00",
"h  c #693000",
"j  c #443C3A",
"k  c #065800",
"l  c #335309",
"z  c #004328",
"x  c #345739",
"c  c #2A7C37",
"v  c #555E29",
"b  c #625F37",
"n  c #546528",
"m  c #616736",
"M  c #68703D",
"N  c #00465B",
"B  c #3E4041",
"V  c #3B5844",
"C  c #1B6565",
"Z  c #424545",
"A  c #454A4B",
"S  c #50504F",
"D  c #4B4E54",
"F  c #545757",
"G  c #4D5555",
"H  c #735043",
"J  c #6F7048",
"K  c #767549",
"L  c #7A7C50",
"P  c #5B6263",
"I  c #58686B",
"U  c #5A6377",
"Y  c #4A7273",
"T  c #606571",
"R  c #667171",
"E  c #6C7575",
"W  c #6E7878",
"Q  c #727A7A",
"!  c #787A77",
"~  c #860F00",
"^  c #9A1608",
"/  c #A81507",
"(  c #B71808",
")  c #852A08",
"_  c #972611",
"`  c #863F11",
"'  c #8D330F",
"]  c #A72308",
"[  c #B83307",
"{  c #902E2D",
"}  c #993F3F",
"|  c #BE3233",
" . c #AD2A2D",
".. c #AC4B00",
"X. c #AB4C0D",
"o. c #BF4706",
"O. c #B55211",
"+. c #BE6C00",
"@. c #BF6200",
"#. c #B17800",
"$. c #BE6210",
"%. c #AA6910",
"&. c #A35A37",
"*. c #B06E3D",
"=. c #AB6934",
"-. c #C95606",
";. c #D45803",
":. c #C84010",
">. c #DB5513",
",. c #C4680D",
"<. c #DA6F03",
"1. c #D66F00",
"2. c #D97907",
"3. c #CC6A1E",
"4. c #E76905",
"5. c #E77705",
"6. c #ED760D",
"7. c #9E4E40",
"8. c #976F41",
"9. c #A96749",
"0. c #A27177",
"q. c #B08638",
"w. c #EA8307",
"e. c #F88A05",
"r. c #FC9C01",
"t. c #FC9600",
"y. c #E49202",
"u. c #D5B707",
"i. c #E9AB08",
"p. c #FDA503",
"a. c #F0A005",
"s. c #FCBC00",
"d. c #FEB700",
"f. c #EBB702",
"g. c #E08A39",
"h. c #FAC903",
"j. c #FCDC00",
"k. c #F7D904",
"l. c #FAEC00",
"z. c #FBE301",
"x. c #F9FB00",
"c. c #8B8B55",
"v. c #968959",
"b. c #96985C",
"n. c #858343",
"m. c #B38B55",
"M. c #9B9B62",
"N. c #9B9E6A",
"B. c #B29770",
"V. c #A8A66B",
"C. c #AFB670",
"Z. c #BBBA79",
"A. c #ABAB72",
"S. c #D79248",
"D. c #C69859",
"F. c #D79856",
"G. c #CA8C4E",
"H. c #C3A55B",
"J. c #EDA24E",
"K. c #F4B058",
"L. c #D39862",
"P. c #C99773",
"I. c #CD9B6E",
"U. c #DEA261",
"Y. c #C0BF7E",
"T. c #DEB070",
"R. c #E2AF71",
"E. c #E8BB75",
"W. c #FCC67E",
"Q. c #6C7B8B",
"!. c #7D8484",
"~. c #848A8B",
"^. c #898C8C",
"/. c #868A87",
"(. c #8D9595",
"). c #8D9A9F",
"_. c #92948F",
"`. c #9BA1A1",
"'. c #A2A8A8",
"]. c #ADB0B0",
"[. c #BABDBE",
"{. c #C48584",
"}. c #C0B380",
"|. c #CAB38A",
" X c #CFBBB8",
".X c #E9BEBD",
"XX c #C5C582",
"oX c #CBCC86",
"OX c #D4D48B",
"+X c #D9D98D",
"@X c #D4D589",
"#X c #DAD199",
"$X c #EBC081",
"%X c #FDDB98",
"&X c #F1CD8D",
"*X c #DEE18E",
"=X c #D9E095",
"-X c #E4E493",
";X c #E3C9B3",
":X c #FFE6A2",
">X c #FFEBA6",
",X c #FBE7BF",
"<X c #BDC2C2",
"1X c #C4C9CA",
"2X c #C9C9C8",
"3X c #CFD0D0",
"4X c #DBDCDD",
"5X c #D2D3D3",
"6X c #D1C9C5",
"7X c #F2E3DB",
"8X c #E3E5E5",
"9X c #ECEDED",
"0X c #EFF1F1",
"qX c #F5F5F5",
"wX c #FEFEFE",
"eX c #F7F9F9",
"rX c #FFF9E3",
/* pixels */
"                                                                                                                        ",
"                                                                                                                        ",
"                                                                                                                        ",
"                                                                                                                        ",
"                                                                                                                        ",
"                                                                                                                        ",
"                                                                                                                        ",
"                                                                                                                        ",
"                                                                                                                        ",
"                                                                                                                        ",
"                                                                                                                        ",
"                                                                                                                        ",
"                                          [ _                                                                           ",
"                                    [ _ ' p.X.  -.                                                                      ",
"                                  f a.O.5.j.5.:.2.                                                                      ",
"                                ,.,.u.p.j.h.r.p.`                                                                       ",
"                                y.z.>.f.x.l.z.h.$.^                                                                     ",
"                                ^ i.h.l.z.s.k.s.5.s                                                                     ",
"                              <.e.;.o.h.4.h.e.l.i.:.                                                                    ",
"                                <.g.7.6.@.>.s.z.k.e.                                                                    ",
"                                ] I.U.3.S...6.p.e.X.                                                                    ",
"                                4.L.$X=.E.O.[ h.t.)                                                                     ",
"                                > D.&XH  XS.G.;.e.w.                                                                    ",
"                                  v.$.Q.rX,.I.1.-.w.                                                                    ",
"                                  8.K.|.7XL.-.<.h f k                                                                   ",
"                                  D.>X:X%XE.9.&.X 4 6 e w @                                                             ",
"                                    G.Y.%X..! Q ( 4 j j i 7 r e - .                                                     ",
"                                    . T.S.%.R. X| q j p i i i j i p e -                                                 ",
"                                      $Xd m.p.7X0.~ 0 y r i p B . . . . r w         oXXXXXXX-X                          ",
"                                        z $ *.;X.X~ 0 a = 7 Z . /.3X3XS . . . . C.+XZ.M.M.A.-XXX-X                      ",
"                                          < N {.2X .d 9 ; = . D 3X6X2X2X!./.T b OXc.m     n L A.OX+X                    ",
"                                            . I Y {.{ . , . . <XP./ f )._.U W oXM.l           c.8.Y.OX                  ",
"                                              + . C } ^ . F ! 4X#.&X2.. . n.c.M.v                 M V.+X                ",
"                                                3 . g ( . S S U }.:XJ.m.N.V.oX.                     l Z.-X              ",
"                                                  1 : d * . M b.D.%X&Xq.=Xb.M.                        m oX*X            ",
"                                                  < X * r X L =XH.J.F.> L                               c.+X+X          ",
"                                        o # < 9 5 5 w X . . . J K ) h %                                   J Y.oX*X      ",
"                          o o # < 2 w 2 7 2 w . . X . B Q F . % . 4 %                                         N.OX      ",
"            r r r t t 3 5 8 8 5 w X . . . . . F E R P ].0X[.. u r j + 1                                                 ",
"        B . . . . . . . . . . . . i Q E E E P 3X9X8X4X0XwX4X. p e - o X X $                                             ",
"          (.^.R R R E W W E E Q P '.9X8X8X8X8XeXwXwXwXeXqXeX/.. e . o o o o .                                           ",
"            `.eXqXqX9X8X8X8X8X8X8XqXwXwXwXwXwXqXqXqXeXwXwXqX`.= . o X O o . ~.(.Z                                       ",
"                5X<X9XwXwXwXwXwXwXeXqXeXeXqXwXwXwXwXwX[.1X`.A y . o o o o . Q (.~.                                      ",
"                        <X[.1X<XwXwXwXwXwXwX0X[.1X[.1Xc V u . r . o o o o . = - P (.                                    ",
"                                                        . u w i w . o o o o . . . Z                                     ",
"                                                          y 2 8 i o . ; X . o = $                                       ",
"                                                          w p - i u o . x                                               ",
"                                                          X u o y e . Q .                                               ",
"                                                            y y . - . (.8X                                              ",
"                                                            y i e . G 4X/.                                              ",
"                                                            ; u & . P 0X                                                ",
"                                                            @ & k x I p                                                 ",
"                                                                < `.wX                                                  ",
"                                                                  i !.                                                  ",
"                                                                                                                        ",
"                                                                                                                        ",
"                                                                                                                        ",
"                                                                                                                        ",
"                                                                                                                        ",
"                                                                                                                        "
};
