/* XPM */
static char *_f4f83baf3e94f0fb5bff9b2c0d900c69UofO4BWxPvTqFCX[] = {
/* columns rows colors chars-per-pixel */
"60 60 197 2 ",
"   c None",
".  c #000000",
"X  c #090204",
"o  c #020905",
"O  c #060A0A",
"+  c #0A0A0A",
"@  c #060608",
"#  c #081502",
"$  c #1B1C05",
"%  c #000416",
"&  c #060816",
"*  c #111414",
"=  c #171A1C",
"-  c #280000",
";  c #3A0000",
":  c #2D0911",
">  c #002A00",
",  c #003500",
"<  c #1D3804",
"1  c #33360C",
"2  c #3A3718",
"3  c #253509",
"4  c #172626",
"5  c #252C2C",
"6  c #252A2A",
"7  c #2C3434",
"8  c #283836",
"9  c #343B3B",
"0  c #410000",
"q  c #4B0200",
"w  c #540000",
"e  c #5D0000",
"r  c #5E0B00",
"t  c #5F1517",
"y  c #630000",
"u  c #6C0000",
"i  c #640800",
"p  c #710000",
"a  c #7E0000",
"s  c #782000",
"d  c #7D3F17",
"f  c #702322",
"g  c #6E282C",
"h  c #004F00",
"j  c #32421B",
"k  c #39423C",
"l  c #34553F",
"z  c #424414",
"x  c #4E531E",
"c  c #594F1A",
"v  c #60431F",
"b  c #5A5A24",
"n  c #67662E",
"m  c #6C6A32",
"M  c #706F32",
"N  c #7C7C3A",
"B  c #757536",
"V  c #003E46",
"C  c #364140",
"Z  c #3A4443",
"A  c #384947",
"S  c #3C5148",
"D  c #434C4D",
"F  c #414E47",
"G  c #44524E",
"H  c #48504E",
"J  c #424F51",
"K  c #485352",
"L  c #545B5D",
"P  c #5B6665",
"I  c #666D6D",
"U  c #64706F",
"Y  c #707777",
"T  c #840300",
"R  c #880000",
"E  c #950000",
"W  c #9A0000",
"Q  c #881700",
"!  c #921300",
"~  c #A20800",
"^  c #AB1C00",
"/  c #8A2304",
"(  c #9A2200",
")  c #993902",
"_  c #8A3300",
"`  c #A32500",
"'  c #AB2400",
"]  c #BD2700",
"[  c #BA2900",
"{  c #AD3C00",
"}  c #C42700",
"|  c #CC2E00",
" . c #C63F00",
".. c #CD3000",
"X. c #DB3A00",
"o. c #9B5011",
"O. c #9D4B10",
"+. c #B84900",
"@. c #B95409",
"#. c #AC460E",
"$. c #87583C",
"%. c #965D23",
"&. c #B45D28",
"*. c #807E3C",
"=. c #AF7339",
"-. c #C64E00",
";. c #C24600",
":. c #DE4D00",
">. c #D45B00",
",. c #E34B00",
"<. c #EA4900",
"1. c #F85A00",
"2. c #F54A00",
"3. c #CD6B1C",
"4. c #F36A00",
"5. c #FD6000",
"6. c #F57800",
"7. c #E47B00",
"8. c #C87222",
"9. c #8C664C",
"0. c #A07C40",
"q. c #A47852",
"w. c #927B6E",
"e. c #7C9435",
"r. c #76807C",
"t. c #8A893C",
"y. c #929539",
"u. c #EA8900",
"i. c #FD8300",
"p. c #FE8E00",
"a. c #F48F00",
"s. c #E79800",
"d. c #F69500",
"f. c #E2AD00",
"g. c #F1A500",
"h. c #FFB100",
"j. c #F4BD00",
"k. c #DD8933",
"l. c #D7903E",
"z. c #E98829",
"x. c #E6C000",
"c. c #FCCD00",
"v. c #FFC000",
"b. c #F4EB00",
"n. c #F4E200",
"m. c #F6F800",
"M. c #8F8F43",
"N. c #AB8041",
"B. c #A4A44B",
"V. c #ACAE4E",
"C. c #AEAE50",
"Z. c #B5B453",
"A. c #B8BA55",
"S. c #A7B052",
"D. c #C48748",
"F. c #C5904E",
"G. c #D0A353",
"H. c #FFAD4C",
"J. c #F9B95E",
"K. c #CEA465",
"L. c #F4BE63",
"P. c #CDCD5D",
"I. c #DFDF65",
"U. c #FFC465",
"Y. c #FBC96B",
"T. c #FED171",
"R. c #E8E76A",
"E. c #767D80",
"W. c #708491",
"Q. c #7B8484",
"!. c #83898A",
"~. c #899393",
"^. c #A89389",
"/. c #9CA1A1",
"(. c #A7AAAA",
"). c #ADB2B2",
"_. c #B9BDBD",
"`. c #B5B7B9",
"'. c #C6989A",
"]. c #E48D8E",
"[. c #DEB592",
"{. c #E9ADAB",
"}. c #FED8A3",
"|. c #BDC3C2",
" X c #C2C4C6",
".X c #CACDCC",
"XX c #C4C9C9",
"oX c #D0D0CF",
"OX c #D2D4D4",
"+X c #DBDDDD",
"@X c #D5DADC",
"#X c #E9D9D6",
"$X c #DFE1E1",
"%X c #EDEEEE",
"&X c #E2E3E3",
"*X c #F4F4F4",
"=X c #FEFDFD",
/* pixels */
"                                                                                                                        ",
"                                                                                                                        ",
"                                                                                                                        ",
"                                                                                                                        ",
"                                                                                                                        ",
"                                                                                                                        ",
"                                                                                                                        ",
"                                                                                                                        ",
"                                                                                                                        ",
"                                        T                                                                               ",
"                                  a w / 1.0   T                                                                         ",
"                                e ,.i >.c.~ ! :.                                                                        ",
"                              p e x.2.j.4.1.2.q                                                                         ",
"                              u.g.E d.b.b.d.f.e p                                                                       ",
"                              ` j.7.n.b.s.m.6.}                                                                         ",
"                            -.^ -.u.c.i.v.6.h.} -                                                                       ",
"                            ` 1.~ / i.[ 6.a.m.s.|                                                                       ",
"                              ' &./ X.Q } p.g.p.X.                                                                      ",
"                              R D.+.#.3.p ,.p.,.i                                                                       ",
"                              ^ D.k.d k.u ` h.,.;                                                                       ",
"                              - D.G.: K.#.) | 5. .                                                                      ",
"                                N.e W.}.O.=.[ ` 1.                                                                      ",
"                                ) ;.Q.}.! ( ;.y w               .                                                       ",
"                                0.T.Y.Y.F.} Q . . . . . . . . + . .                                         P.P.        ",
"                                #.U.Y.U.) V t ~ . + O + O . . . o h                                       I.B.          ",
"                                  0 =.k.q 9.L w . O O + + O @ . . . .                                     M 3           ",
"                                  2 H.y 8.D.{.E . + O + + + @ . . . . .                                 M 1             ",
"                                    %.X o.4.#Xg . O . . + @ O . _.@X$X(..                             n Z.              ",
"                                          o.[.].0 . . . . . . Y ^.w.I !..X=                           B.y.              ",
"                                            q.'.u . . . . . . `.$.T u % /.D .                       2 V.                ",
"                                                f u . . . 7 . E.$.z.z.q . x b n V.                > N A.                ",
"                                                X W . . + H . % v T.Y.+.7 2 A.$ t.A.              z M.                  ",
"                                                . ; y . 7 = . 3 v J.U.+.S.t.b x $ t.V.          < N                     ",
"                                              # . y T . . . # A.y.3.J._ j B.X     b N R.e.    1 m M.                    ",
"                                              > . . . . . . . b B.s ;.. . % D .     1 m Z.R.B.B B.                      ",
"                                      . . . . . . . . . . . . . . . .     . . .         n N B                           ",
"                          . . . . . . . . . . . . . . . I P . . . . .         .                                         ",
"        . . . . . . . . . . . . . . . . . . . . 9 L G U %X$X. . . . ,                                                   ",
"        = . . . . . . . . . . . . . . 7 K A G 8 _.%X+X&X*X*X9 . . . .                                                   ",
"        H P L K Z Z C C C k C C C Z 4 ).$XOXOXOX%X=X*X*X*X=X).. @ . . @                                                 ",
"            U ~.&X@XOX.X.X.X.X.X.X.XXX%X=X*X*X=X*X*X*X=X=X=X/.o . . + @                                                 ",
"              r.+X).+X=X=X=X=X=X=X=X=X*X*X*X=X=X=X=X=X_.).).8 * . + . . o F .                                           ",
"                    Q.%XOXXX|.XX|.=X=X=X=X=X.X|.XX X XZ 4 5 . . . . . . . 7 = F                                         ",
"                            J K A $X*X%X*X*XP A G S l . . . . . . . @ * X . 6 U L                                       ",
"                                                      . . . @ @ + + @ @ . . . 5 (.(.                                    ",
"                                                      . . . . . . . . . . . . . * 7                                     ",
"                                                      . . . . . . . . . @ . . . .                                       ",
"                                                        . . . . . . . . . . .                                           ",
"                                                        . . . . . . . . . o                                             ",
"                                                          . . . . . . . . . .                                           ",
"                                                            . . . . . . . .                                             ",
"                                                            . . . . . .                                                 ",
"                                                              . . . .                                                   ",
"                                                              . . 6 6                                                   ",
"                                                                . 5                                                     ",
"                                                                                                                        ",
"                                                                                                                        ",
"                                                                                                                        ",
"                                                                                                                        ",
"                                                                                                                        "
};
