/* XPM */
static char *bd36d9e928844e40f1500be68d178c1aL9UgfMcqQLbMbZdh[] = {
/* columns rows colors chars-per-pixel */
"60 60 217 2 ",
"   c None",
".  c #000000",
"X  c #090209",
"o  c #0A0A0A",
"O  c #070705",
"+  c #190203",
"@  c #021D03",
"#  c #071608",
"$  c #071207",
"%  c #000115",
"&  c #180419",
"*  c #0A1614",
"=  c #141415",
"-  c #1C1C1D",
";  c #19181B",
":  c #2A0200",
">  c #390504",
",  c #2A1414",
"<  c #052803",
"1  c #01360B",
"2  c #1B251B",
"3  c #222C1D",
"4  c #001E27",
"5  c #1E1B20",
"6  c #230221",
"7  c #211F22",
"8  c #1E2220",
"9  c #192923",
"0  c #063A3A",
"q  c #002724",
"w  c #232324",
"e  c #2A2B2B",
"r  c #272824",
"t  c #253826",
"y  c #302E30",
"u  c #343334",
"i  c #3B3B3C",
"p  c #393434",
"a  c #3B2928",
"s  c #5A1F10",
"d  c #530605",
"f  c #620807",
"g  c #720A00",
"h  c #693000",
"j  c #443C3A",
"k  c #065800",
"l  c #335309",
"z  c #004328",
"x  c #345739",
"c  c #2A7C37",
"v  c #555E29",
"b  c #625F37",
"n  c #546528",
"m  c #616736",
"M  c #68703D",
"N  c #00465B",
"B  c #3E4041",
"V  c #3B5844",
"C  c #1B6565",
"Z  c #424545",
"A  c #454A4B",
"S  c #50504F",
"D  c #4B4E54",
"F  c #545757",
"G  c #4D5555",
"H  c #735043",
"J  c #6F7048",
"K  c #767549",
"L  c #7A7C50",
"P  c #5B6263",
"I  c #58686B",
"U  c #5A6377",
"Y  c #4A7273",
"T  c #606571",
"R  c #667171",
"E  c #6C7575",
"W  c #6E7878",
"Q  c #727A7A",
"!  c #787A77",
"~  c #860F00",
"^  c #9A1608",
"/  c #A81507",
"(  c #B71808",
")  c #852A08",
"_  c #972611",
"`  c #863F11",
"'  c #8D330F",
"]  c #A72308",
"[  c #B83307",
"{  c #902E2D",
"}  c #993F3F",
"|  c #BE3233",
" . c #AD2A2D",
".. c #AC4B00",
"X. c #AB4C0D",
"o. c #BF4706",
"O. c #B55211",
"+. c #BE6C00",
"@. c #BF6200",
"#. c #B17800",
"$. c #BE6210",
"%. c #AA6910",
"&. c #A35A37",
"*. c #B06E3D",
"=. c #AB6934",
"-. c #C95606",
";. c #D45803",
":. c #C84010",
">. c #DB5513",
",. c #C4680D",
"<. c #DA6F03",
"1. c #D66F00",
"2. c #D97907",
"3. c #CC6A1E",
"4. c #E76905",
"5. c #E77705",
"6. c #ED760D",
"7. c #9E4E40",
"8. c #976F41",
"9. c #A96749",
"0. c #A27177",
"q. c #B08638",
"w. c #EA8307",
"e. c #F88A05",
"r. c #FC9C01",
"t. c #FC9600",
"y. c #E49202",
"u. c #D5B707",
"i. c #E9AB08",
"p. c #FDA503",
"a. c #F0A005",
"s. c #FCBC00",
"d. c #FEB700",
"f. c #EBB702",
"g. c #E08A39",
"h. c #FAC903",
"j. c #FCDC00",
"k. c #F7D904",
"l. c #FAEC00",
"z. c #FBE301",
"x. c #F9FB00",
"c. c #8B8B55",
"v. c #968959",
"b. c #96985C",
"n. c #858343",
"m. c #B38B55",
"M. c #9B9B62",
"N. c #9B9E6A",
"B. c #B29770",
"V. c #A8A66B",
"C. c #AFB670",
"Z. c #BBBA79",
"A. c #ABAB72",
"S. c #D79248",
"D. c #C69859",
"F. c #D79856",
"G. c #CA8C4E",
"H. c #C3A55B",
"J. c #EDA24E",
"K. c #F4B058",
"L. c #D39862",
"P. c #C99773",
"I. c #CD9B6E",
"U. c #DEA261",
"Y. c #C0BF7E",
"T. c #DEB070",
"R. c #E2AF71",
"E. c #E8BB75",
"W. c #FCC67E",
"Q. c #6C7B8B",
"!. c #7D8484",
"~. c #848A8B",
"^. c #898C8C",
"/. c #868A87",
"(. c #8D9595",
"). c #8D9A9F",
"_. c #92948F",
"`. c #9BA1A1",
"'. c #A2A8A8",
"]. c #ADB0B0",
"[. c #BABDBE",
"{. c #C48584",
"}. c #C0B380",
"|. c #CAB38A",
" X c #CFBBB8",
".X c #E9BEBD",
"XX c #C5C582",
"oX c #CBCC86",
"OX c #D4D48B",
"+X c #D9D98D",
"@X c #D4D589",
"#X c #DAD199",
"$X c #EBC081",
"%X c #FDDB98",
"&X c #F1CD8D",
"*X c #DEE18E",
"=X c #D9E095",
"-X c #E4E493",
";X c #E3C9B3",
":X c #FFE6A2",
">X c #FFEBA6",
",X c #FBE7BF",
"<X c #BDC2C2",
"1X c #C4C9CA",
"2X c #C9C9C8",
"3X c #CFD0D0",
"4X c #DBDCDD",
"5X c #D2D3D3",
"6X c #D1C9C5",
"7X c #F2E3DB",
"8X c #E3E5E5",
"9X c #ECEDED",
"0X c #EFF1F1",
"qX c #F5F5F5",
"wX c #FEFEFE",
"eX c #F7F9F9",
"rX c #FFF9E3",
/* pixels */
"                                                                                                                        ",
"                                                                                                                        ",
"                                                                                                                        ",
"                                                                                                                        ",
"                                                                                                                        ",
"                                                                                                                        ",
"                                                                                                                        ",
"                                                                                                                        ",
"                                                                                                                        ",
"                                                                                                                        ",
"                                                                                                                        ",
"                                                                                                                        ",
"                                                                          _ ]                                           ",
"                                                                      -.  X.p.' _ [                                     ",
"                                                                      5.:.5.j.w.$.a.f                                   ",
"                                                                      ` p.t.h.j.r.u.$.,.                                ",
"                                                                    ^ ,.h.z.l.x.f.;.z.y.                                ",
"                                                                    s 6.d.k.s.j.l.h.i./                                 ",
"                                                                    :.i.l.e.h.4.h.o.;.e.<.                              ",
"                                                                    e.h.k.s.>.@.5.7.g.1.                                ",
"                                                                    X.e.p.6...S.3.U.I.]                                 ",
"                                                                    ) r.h.[ X.E.=.W.L.4.                                ",
"                                                                    w.e.;.G.F.#XH &XB.>                                 ",
"                                                                    w.O.1.I.+.rXQ.+.v.                                  ",
"                                                                  k f ) <.-.L.,X|.K.8.                                  ",
"                                                            @ w r 6 @ . &.9.$X%X:X>XD.                                  ",
"                                                    . ; r w w i i j 4 ( Q.! ..%X|.G.                                    ",
"                                                - r i i i i i i u j q |  XR.%.S.T..                                     ",
"                          -XXXXXXXoX        2 w . . . . Z u i w p 0 ~ 0.7Xp.m.d E.                                      ",
"                      -XXX-XV.M.b.Z.OXC.. . . . S 3X3X^.. Z w = a 0 ~ .X;X*.. z                                         ",
"                    +XOXA.L n     m v.OXb T /.!.2X6X6X3XD . = - 9 d  .2XB.N <                                           ",
"                  OXY.L c.          l M.@XW U _.).f / P.[.. . , . { {.Y I .                                             ",
"                +XN.M                 v M.c.n.. . 2.W.#.4X! S . ^ } C . +                                               ",
"              *XZ.l                     . oXV.N.m.J.:X}.U D S . ( g . 3                                                 ",
"            *XoXm                         M.b.=Xq.&X%XD.b.J . * > > 1                                                   ",
"          +X+Xc.                              L : F.J.H.=XK . r * . <                                                   ",
"      *XoXXXJ                                   % h ) J J . . . X w ; 5 2 < # O                                         ",
"      OXN.                                        % 4 . % . F W Z . . . . 7 - 8 2 w 2 < # o o                           ",
"                                                1 + j r u . [.qX].P E E P . . . . . X 7 - 8 2 5 9 t t r w w             ",
"                                            $ X X o - e p . 4XwX9X8X8X9X3XP E E R Q i . . . . . . . . . . . . i         ",
"                                          . o o o o . r . /.wXqXeXwXwXwXeX8X8X8X8X9X'.I Q E E E W E R R R ^.^.          ",
"                                      Z (.~.. o o o o . = `.qXwXwXeXeXeXeXwXwXwXwXwX9X8X8X8X8X8X8X9XqXeXeX'.            ",
"                                      ~.(.Q . = o o o . u A `.1X[.wXwXwXwXeXeXeXeXeXeXwXwXwXwXwXwX9X<X5X                ",
"                                    (.P - = . o o o o . r . u V c 1X[.1X[.0XwXwXwXwXwXwX[.1X[.<X                        ",
"                                    B . . . o O O o . w i w u .                                                         ",
"                                      $ o o X X ; . o i - w e                                                           ",
"                                              t . o u i - u w                                                           ",
"                                              . Q . r e o u X                                                           ",
"                                              8X(.. - . y y                                                             ",
"                                              /.4XG . e i u                                                             ",
"                                                9XP . & u =                                                             ",
"                                                u P x k & @                                                             ",
"                                                  wX`.<                                                                 ",
"                                                  ! i                                                                   ",
"                                                                                                                        ",
"                                                                                                                        ",
"                                                                                                                        ",
"                                                                                                                        ",
"                                                                                                                        ",
"                                                                                                                        "
};
