/* XPM */
static char *e554c0c719df47d5f8f696710ed5442fUAcFFknRmYimmDHL[] = {
/* columns rows colors chars-per-pixel */
"60 60 200 2 ",
"   c None",
".  c #000001",
"X  c #090303",
"o  c #080208",
"O  c #000C09",
"+  c #090909",
"@  c #040608",
"#  c #160304",
"$  c #00140C",
"%  c #091409",
"&  c #081B09",
"*  c #151808",
"=  c #001410",
"-  c #0F1010",
";  c #141515",
":  c #1C1D1C",
">  c #1E151E",
",  c #231111",
"<  c #002500",
"1  c #052806",
"2  c #023302",
"3  c #063708",
"4  c #00022B",
"5  c #2C1D2C",
"6  c #002122",
"7  c #1C2124",
"8  c #003433",
"9  c #232222",
"0  c #2A2A2A",
"q  c #272827",
"w  c #343434",
"e  c #3A3A3A",
"r  c #363938",
"t  c #342B2E",
"y  c #470E0C",
"u  c #770C03",
"i  c #700B0A",
"p  c #443938",
"a  c #284B04",
"s  c #016602",
"d  c #33640D",
"f  c #35403F",
"g  c #555534",
"h  c #587230",
"j  c #667539",
"k  c #6C6D3D",
"l  c #353A48",
"z  c #314253",
"x  c #404141",
"c  c #474C4C",
"v  c #4E5252",
"b  c #565859",
"n  c #464F55",
"m  c #76514A",
"M  c #777846",
"N  c #787751",
"B  c #6B7349",
"V  c #5C6464",
"C  c #52787D",
"Z  c #646A6B",
"A  c #676969",
"S  c #6A7373",
"D  c #757E7D",
"F  c #797D71",
"G  c #880F00",
"H  c #9A1303",
"J  c #981412",
"K  c #8E150F",
"L  c #BD1907",
"P  c #AC1602",
"I  c #89380F",
"U  c #942708",
"Y  c #B92806",
"T  c #B03D0F",
"R  c #A32B10",
"E  c #AE3910",
"W  c #A62D00",
"Q  c #9E2423",
"!  c #C31A00",
"~  c #874806",
"^  c #99460A",
"/  c #985300",
"(  c #B34200",
")  c #B65C05",
"_  c #BB4F10",
"`  c #AC580E",
"'  c #BA6600",
"]  c #BA6D34",
"[  c #C74E05",
"{  c #C85A04",
"}  c #C45E18",
"|  c #C86305",
" . c #DB660B",
".. c #D56602",
"X. c #C77600",
"o. c #DA7807",
"O. c #E06A03",
"+. c #EB7803",
"@. c #C6793C",
"#. c #96504D",
"$. c #A15B5A",
"%. c #977E58",
"&. c #AE7A4D",
"*. c #A16366",
"=. c #CF7F48",
"-. c #008400",
";. c #76887D",
":. c #DB8404",
">. c #EC8305",
",. c #EE810C",
"<. c #F78902",
"1. c #FA9406",
"2. c #ED9713",
"3. c #F4AA01",
"4. c #FDAC00",
"5. c #FEB501",
"6. c #F9BA00",
"7. c #F3B602",
"8. c #EFB202",
"9. c #C9873A",
"0. c #D78B3F",
"q. c #CE872D",
"w. c #F9C701",
"e. c #FCD700",
"r. c #FDDF00",
"t. c #F7D601",
"y. c #EED102",
"u. c #F8F100",
"i. c #F9F900",
"p. c #F8EC00",
"a. c #8A8B58",
"s. c #92925C",
"d. c #928751",
"f. c #BE925A",
"g. c #9B9A66",
"h. c #AD9471",
"j. c #A4A46C",
"k. c #ABAB71",
"l. c #B7B678",
"z. c #AABB6C",
"x. c #C68A55",
"c. c #E09D52",
"v. c #DDA25A",
"b. c #EFB05D",
"n. c #D29D6D",
"m. c #C8AB76",
"M. c #DBB37F",
"N. c #CFB276",
"B. c #EAB36B",
"V. c #ECB770",
"C. c #B1C170",
"Z. c #C3C27F",
"A. c #7D8383",
"S. c #7C8B87",
"D. c #828B8C",
"F. c #8A8D8D",
"G. c #8C9494",
"H. c #8B9594",
"J. c #9A9F9F",
"K. c #888F8F",
"L. c #B79982",
"P. c #97A09F",
"I. c #BAA99F",
"U. c #9BA3A2",
"Y. c #A6AAAA",
"T. c #A9B1B5",
"R. c #B1B6B6",
"E. c #D1AF86",
"W. c #D2BCB9",
"Q. c #EDB5B6",
"!. c #C5C581",
"~. c #CBCC85",
"^. c #D0CF87",
"/. c #D2D289",
"(. c #DFDF8F",
"). c #FFCB81",
"_. c #FCDB9A",
"`. c #FAD593",
"'. c #E2C590",
"]. c #ECEC98",
"[. c #F0EF9B",
"{. c #EAD0B9",
"}. c #FEE2A1",
"|. c #BFC4C4",
" X c #CBCDCD",
".X c #C3C5C5",
"XX c #CED0D0",
"oX c #D2D4D4",
"OX c #DADCDD",
"+X c #D6D9D9",
"@X c #F0CBC9",
"#X c #DEE0DF",
"$X c #FDE6C4",
"%X c #DEE0E0",
"&X c #E3E4E4",
"*X c #EAEBEB",
"=X c #E4E7E8",
"-X c #F5F5F5",
";X c #FCFCFC",
":X c #F0E6E4",
/* pixels */
"                                                                                                                        ",
"                                                                                                                        ",
"                                                                                                                        ",
"                                                                                                                        ",
"                                                                                                                        ",
"                                                                                                                        ",
"                                                                                                                        ",
"                                                                                                                        ",
"                                                                                                                        ",
"                                                                              T                                         ",
"                                                                        T   I 1.) I E                                   ",
"                                                                        >._ [ r.2.J ,.^                                 ",
"                                                                        ~ >.1.1.t.<.y.J R                               ",
"                                                                      R R y.6.u.u.7.Y w.7.                              ",
"                                                                         .3.i.6.u.p.3.e.}                               ",
"                                                                      i  .w.3.t.4.r.3.:.{ :.                            ",
"                                                                       .7.i.6.3. .5.' [ 1.{                             ",
"                                                                      +.5.w.5. .) +.@.x.{                               ",
"                                                                      ^ ,.5.+.W x.=.=.M.Y                               ",
"                                                                      ~ >.e.| W b.&.b.M.{                               ",
"                                                                      o.1...@.x.'.m '.M.i                               ",
"                                                                      <.} ..n.9.$XT./ N.                                ",
"                                                      +               K J o.| ' $XR.o.]                                 ",
"        (.(.                                        < ; e : . + + - + O @ _ ..E._.`.}.m.                                ",
"          !.].                                      -.3 o + . q e w p $ ! #.C ' _._.`.X.                                ",
"          j g.                                    & < ; r r w r e w p 8 G F.L.U B.N.~                                   ",
"            j g.                                . . . . e w e w e e p 8 ! @XV.v.^ V.N                                   ",
"              /.g.                            . .X*X=XoX. x e e : 0 r y *.:X2.x.X n.                                    ",
"              C.Z.                          b #XR.J.I.W.Y.. t 9 ; t 8 G Q.{.x.                                          ",
"                ~.B                       X A.|.n W T h.oX. ; . - 9 . Q W.E.                                            ",
"                (.j.d                 ~.g.s.F . ~ B.B.h.Y.@ A . > O H *.                                                ",
"                  l.M               /.k.g /.M N q._.}.%.l o a.z @ , ! y                                                 ",
"                    k.h           ~.k.g a.s.l.~.9.].`.d.B X c A X J i @                                                 ",
"                    l.g.k     z.[.k.a.    4 !.N ' `.c.N.^.g . # $ P H @ a                                               ",
"                      !.j.!.[.^.g.M     . A.l . $ o.` C.a.* . + # O $ # s                                               ",
"                          j.k.g.        + . .     6 7 X . + : : + + o @ o o + + +                                       ",
"                                        o         q q . . : G.P.r . . . + + + @ + + + o + + +                           ",
"                                                  s 5 : . q *X-XU.D.G.D . . . . . + + + + @ + @ + % % + + + + .         ",
"                                                  2 0 e . D -X;X*X*X*X+XD D.A.D.S . . . . . . . . . . . . . . v         ",
"                                                w . + x .  X;X;X;X;X;X-X&X=X=X*XXXS A.D D D D D D D D D D.G.G.S.        ",
"                                                t w w . c .X;X;X;X-X-X;X-X;X;X;X-XOX&X%X%X&X%X%X&X&X=X*XR.U.            ",
"                                          . ;.2 > 9 r 9 v S  XXX+X;X;X;X;X;X;X;X-X;X;X;X;X;X;X;X;X=X X*XY.              ",
"                                        D v Z > q ; ; w @ . Z A A.OXOXOXOX%X;X;X;X;X;XOXOXOXOX=X-XR.                    ",
"                                      F.U.b . 0 z w : 9 9 9 . . 1 ;.S.D.S.U.-X-X-X;X*XS.K.D.                            ",
"                                     X.XV . ; : t w w w w w + o 2                                                       ",
"                                    Z c . ; # - . . . . . . + + o                                                       ",
"                                      . ; . : 0 . + + @ + + + + o                                                       ",
"                                          % + @ + + @ + @ + @ +                                                         ",
"                                            3 o + + + + + + + o                                                         ",
"                                          & % o + + o + + o &                                                           ",
"                                            % o o + + + @ %                                                             ",
"                                                1 o + + @ +                                                             ",
"                                                  . . + +                                                               ",
"                                                  b V . ;                                                               ",
"                                                    A .                                                                 ",
"                                                                                                                        ",
"                                                                                                                        ",
"                                                                                                                        ",
"                                                                                                                        ",
"                                                                                                                        "
};
