/* XPM */
static char *a3ce6db7dc5d432ad9114f3315a6e0b6oZn4TkuOJRNiiN9Y[] = {
/* columns rows colors chars-per-pixel */
"60 60 224 2 ",
"   c None",
".  c #010001",
"X  c #01010C",
"o  c #090409",
"O  c #090A09",
"+  c #080C06",
"@  c #170A04",
"#  c #0A120A",
"$  c #071A08",
"%  c #031803",
"&  c #13140B",
"*  c #000111",
"=  c #00011A",
"-  c #121313",
";  c #141A1B",
":  c #1C1D1C",
">  c #191914",
",  c #100D11",
"<  c #2F1712",
"1  c #072607",
"2  c #043204",
"3  c #073A06",
"4  c #143317",
"5  c #20201C",
"6  c #282816",
"7  c #3D310F",
"8  c #1A1A24",
"9  c #000220",
"0  c #2B1B34",
"q  c #032428",
"w  c #003736",
"e  c #1E3535",
"r  c #242423",
"t  c #2A2423",
"y  c #262A2A",
"u  c #2B2B2B",
"i  c #282829",
"p  c #363528",
"a  c #2C2D32",
"s  c #2E3333",
"d  c #333333",
"f  c #3C3C3C",
"g  c #393A37",
"h  c #30312D",
"j  c #4C0604",
"k  c #561803",
"l  c #5B1717",
"z  c #740A00",
"x  c #6B190F",
"c  c #43280A",
"v  c #692C00",
"b  c #702A00",
"n  c #620A30",
"m  c #41393A",
"M  c #4D352A",
"N  c #004B12",
"B  c #006607",
"V  c #144729",
"C  c #42431E",
"Z  c #714609",
"A  c #48472C",
"S  c #5A5B2D",
"D  c #4E4D32",
"F  c #444339",
"G  c #5B5A38",
"H  c #605F3B",
"J  c #5E6836",
"K  c #64643A",
"L  c #6A6B3B",
"P  c #6B753C",
"I  c #38494C",
"U  c #434747",
"Y  c #4A4E4E",
"T  c #45494A",
"R  c #555B5B",
"E  c #545956",
"W  c #554F4B",
"Q  c #6C6D46",
"!  c #767648",
"~  c #7F7F57",
"^  c #5A6465",
"/  c #696B6A",
"(  c #6C7272",
")  c #697878",
"_  c #737676",
"`  c #6D7070",
"'  c #830E00",
"]  c #870F12",
"[  c #931111",
"{  c #8D1009",
"}  c #A31403",
"|  c #B61700",
" . c #9C3513",
".. c #A53B0F",
"X. c #BC3506",
"o. c #AD2C0D",
"O. c #8B2727",
"+. c #D61E00",
"@. c #E72220",
"#. c #8A4C06",
"$. c #995704",
"%. c #8E4F06",
"&. c #A55600",
"*. c #B34808",
"=. c #B76C05",
"-. c #B36D10",
";. c #A16B35",
":. c #B26522",
">. c #C14806",
",. c #C75B07",
"<. c #E85B05",
"1. c #C96706",
"2. c #D36E03",
"3. c #C87903",
"4. c #DA7706",
"5. c #D36E18",
"6. c #E57903",
"7. c #F37800",
"8. c #D6772F",
"9. c #E07E21",
"0. c #8F7544",
"q. c #B77D49",
"w. c #857F62",
"e. c #7D8054",
"r. c #BE970A",
"t. c #B08237",
"y. c #C7980C",
"u. c #D68100",
"i. c #EA8804",
"p. c #F58805",
"a. c #FF9601",
"s. c #FF9703",
"d. c #E78816",
"f. c #F18C14",
"g. c #E89603",
"h. c #D7B307",
"j. c #FAA901",
"k. c #F9B301",
"l. c #F8B801",
"z. c #EBAD04",
"x. c #DA8B2B",
"c. c #E6993F",
"v. c #F4CE01",
"b. c #FCCC00",
"n. c #F3C602",
"m. c #FFDB00",
"M. c #F9D601",
"N. c #EAD106",
"B. c #F9E900",
"V. c #FAF300",
"C. c #82824F",
"Z. c #848451",
"A. c #868657",
"S. c #978A5D",
"D. c #BF945A",
"F. c #9B9A63",
"G. c #9C9B68",
"H. c #8E8D60",
"J. c #B88E69",
"K. c #9FA06E",
"L. c #A6A86E",
"P. c #ABAB72",
"I. c #A7A771",
"U. c #B2B274",
"Y. c #B9BA7B",
"T. c #B1AD6F",
"R. c #C38258",
"E. c #C9935C",
"W. c #CF914D",
"Q. c #E2A258",
"!. c #C99868",
"~. c #D4A36C",
"^. c #D5AE78",
"/. c #E5B375",
"(. c #F4BE75",
"). c #EAAC67",
"_. c #C2C27E",
"`. c #FFCA7B",
"'. c #317F87",
"]. c #557980",
"[. c #707E83",
"{. c #7D8281",
"}. c #838B8B",
"|. c #8C9393",
" X c #939B9B",
".X c #979A99",
"XX c #948A81",
"oX c #B39D90",
"OX c #A5A491",
"+X c #9CA3A3",
"@X c #A5ACAC",
"#X c #A7A9AA",
"$X c #B3B5B6",
"%X c #B8BCBC",
"&X c #ABB0B1",
"*X c #C8CB84",
"=X c #D5D68A",
"-X c #FCCA83",
";X c #F3C988",
":X c #FDDE9D",
">X c #F7D695",
",X c #DFE090",
"<X c #E8E895",
"1X c #D6C1B3",
"2X c #FFE7A6",
"3X c #B9C2C3",
"4X c #CACDCD",
"5X c #C5C9C9",
"6X c #CED0D1",
"7X c #CADBDE",
"8X c #D1D2D3",
"9X c #DCDDDD",
"0X c #D7D9DB",
"qX c #D3CECB",
"wX c #E4DBD1",
"eX c #FAEFD5",
"rX c #DFE1E1",
"tX c #E3E5E5",
"yX c #EBECEC",
"uX c #E6E8E9",
"iX c #F4F4F4",
"pX c #FDFDFD",
"aX c #FBFCF7",
"sX c #EFF1F1",
/* pixels */
"                                                                                                                        ",
"                                                                                                                        ",
"                                                                                                                        ",
"                                                                                                                        ",
"                                                                                                                        ",
"                                            *.6.                                                                        ",
"                                        $.#.p. .  *.f.                                                                  ",
"                                      4.4.2.s. .X.M.y.                                                                  ",
"                                      y.n.n.k.N.z.m.>.]  .                                                              ",
"                                    [ -.s.M.B.l.M.4.[ N.f.                                                              ",
"                                    ..<.k.b.k.M.V.g.h.b.,.                                                              ",
"                                    ..b.v.j.l.b.B.b.l.4.]                                                               ",
"                                  ,.y.V.b.<.M.7.z.z.7.,.1.                                                              ",
"                                  i.m.j.b.X.6.i.>.8.8.p.s.6.                                                            ",
"                                  [ p.s.,.1.:.9.>.-XJ.6. .                                                   X+X        ",
"                                    ..s.5.,.-XR.~.~.!.7. .                                              g . 0X          ",
"                                    i.f.{ /.;.;.:X>XR.X.f.                                            r . I iX          ",
"                                  i.s.1.o./.wXG W.-XS.j                                             4 . . 6XtX          ",
"                                  6.>.R.E.~.pX0 3.>Xw..                                           4 # . #XuX            ",
"                                    z R.Q./.eXJ.(.2XE..                                         + , . . 9X0X            ",
"                                    B *.1./.>X:X:X>XQ.                                        3 o - . ^ 9X              ",
"                                    j k n &.;X>X>X!..                                       O o O . ; 5XuX              ",
"                                  @ @.. _ ^ 3.>Xv =.$.                                    1 o O - . +XsX}.              ",
"                                  . x ' ].~.x Q.-X&.N                                   # + O O . ( sX@X                ",
"                                a w l +.'.E.2.Z 0.k                                   o O - . U ) 6XpX                  ",
"                                d f j } M 1X).` X X                               1 2 X - . . +XtXpXtX                  ",
"                              d f m q O.} 0X1X` ; o                             3 O . - . Y _ tXpXyX                    ",
"                              : g m w O.| 3X@X. . O                           $ o O O . y $X6XpXiX                      ",
"                              . u g s l z ) Y . , o                         O O O . i i |.iXpXpX8X                      ",
"                              . a 8 d s . i - . O O                       + X O - . ^ +XtXpXpXuX                        ",
"                              . h 8 d s . , O O O o                   1 O O o # . . $XpXiXpXiX                          ",
"                              . d : s f r . O O O o                 O # O O . . ( |.sXpXpXpX                            ",
"                            R _ . i d g f . . . - O               $ o O , . U ( 4XuXiXpXuX6X                            ",
"                            R }.. u d U . #X6X$X. : X         $ O o # . . R +X0XsXpXpXsX@X                              ",
"                          2 R }.. r m . ` qXwX4XI . -       $ o O o . U / 5XrXpXaXpXaX4X                                ",
"                          . Y _ . : d 6 5XoX' :.XX. :   N o O . . a s +X3XpXpXaXpXyXuX                                  ",
"                        + O . . - - . &X3X. x.i.3.u 7 A p . . d ; ` &XtXpXaXpXiXiX+X                                    ",
"            =X<X        O + O O , . _ 9X. q #.i.).`.%.=XF.. . |. X%XpXiXaXiXpX8X                                        ",
"          P.U.U.I.P B t r . O O - . / tX. }.E x.>X<XQ.T.Q V . 9XaXsXpXiXpXaX+X                                          ",
"        P.C.Z.! L.K % f r . O O . i qXE ^ [.. c.:X^.4.0.N     yXpXaXaXpX6X%X                                            ",
"      <XY.S     Z.H.A a + o O O . 5 iX{.[.;.=.$.-X/.$.M %     |.pXpXsX4X                                                ",
"      *XG.      L T.G 8 5 - o O O . &X[.R $.d.b ;.E.j * t .     8XyX5X                                                  ",
"      U.K       S F.Q = d : . # . . . J b -.=.Z + . X > g .                                                             ",
"      U.P       . L L.8 u 5 - . D H K *X#.i.c . & O . - d O 1                                                           ",
"      P.!       a p U.e.= t F . U.<XD P.e.. > + O O O . : d .                                                           ",
"      P.L.    1 d & Z.U.G . Q <X_.P.P 5 5 . + o O O O . 5 u .                                                           ",
"        =X    h 5 O D F.T.L.I.oXF.A 6 . . O o O o o O . : f : %                                                         ",
"        Y.=XQ 8 y u X L Z.Z.Z.Z.K . . O O O + O O O O O o a r r                                                         ",
"        U.<XA.= 5 g X g A A C A > . O O O O O o o o + O . i r d g                                                       ",
"        L.=X~ * 6 i 5 g X u . . . + O O $ + o O O O O O . i r s a                                                       ",
"          <XH.. g O i i . d O o O O O       + o O + O O . : - i 4                                                       ",
"          <XU.. g : f i . d O # +             + O O O . > d g ;                                                         ",
"          <XU.. 6 - f i . O o 3                 O O , . Y +X+XY .                                                       ",
"          =X. > . . i u . #                         . y +X@X` }. X.                                                     ",
"          OX0X. 8X#X. r                                   ( s T E .                                                     ",
"            &X. $X X                                                                                                    ",
"                                                                                                                        ",
"                                                                                                                        ",
"                                                                                                                        ",
"                                                                                                                        "
};
