/* XPM */
static char *_8a33a438950417ca00153cab4f0101feZkA6wOas3a72iuJ[] = {
/* columns rows colors chars-per-pixel */
"60 60 226 2 ",
"   c None",
".  c #010101",
"X  c #040B05",
"o  c #05040A",
"O  c #0A040A",
"+  c #050B0A",
"@  c #0A0B0A",
"#  c #0A0705",
"$  c #120805",
"%  c #051305",
"&  c #0B140B",
"*  c #0A1A0A",
"=  c #081708",
"-  c #12120C",
";  c #191709",
":  c #070414",
">  c #120D12",
",  c #081A17",
"<  c #131314",
"1  c #121A12",
"2  c #1B1B1C",
"3  c #171818",
"4  c #260602",
"5  c #221F1D",
"6  c #381E1A",
"7  c #052506",
"8  c #172B10",
"9  c #26260F",
"0  c #22211E",
"q  c #34341D",
"w  c #021823",
"e  c #1B1B24",
"r  c #080721",
"t  c #201F21",
"y  c #1B2725",
"u  c #002429",
"i  c #232324",
"p  c #2C2B2B",
"a  c #26262A",
"s  c #332E2E",
"d  c #33342C",
"f  c #373825",
"g  c #2D2D35",
"h  c #333434",
"j  c #353A39",
"k  c #3B3C3C",
"l  c #3B3435",
"z  c #2F3334",
"x  c #5C1C1B",
"c  c #611303",
"v  c #720700",
"b  c #43320E",
"n  c #6A3C09",
"m  c #79211B",
"M  c #7B1420",
"N  c #542A28",
"B  c #423A33",
"V  c #57352F",
"C  c #2C4019",
"Z  c #364837",
"A  c #7A461A",
"S  c #434228",
"D  c #585535",
"F  c #594224",
"G  c #795425",
"H  c #674E29",
"J  c #67673C",
"K  c #063245",
"L  c #2D3F46",
"P  c #3E4444",
"I  c #4A4E4D",
"U  c #434445",
"Y  c #4D5253",
"T  c #47585D",
"R  c #5C5C5C",
"E  c #555857",
"W  c #645D5A",
"Q  c #56645B",
"!  c #686946",
"~  c #78674A",
"^  c #75764B",
"/  c #7A7B52",
"(  c #6A7846",
")  c #5D6665",
"_  c #646B6B",
"`  c #656668",
"'  c #6E7272",
"]  c #6D797A",
"[  c #747A7A",
"{  c #736368",
"}  c #90100D",
"|  c #A00E01",
" . c #AE3008",
".. c #AE312E",
"X. c #C42F26",
"o. c #9C5E0C",
"O. c #954617",
"+. c #AA5708",
"@. c #B7550B",
"#. c #AE4B12",
"$. c #9E6B17",
"%. c #B96A0A",
"&. c #BC780C",
"*. c #A6630A",
"=. c #9B592F",
"-. c #A85226",
";. c #9D6B2F",
":. c #AF6B33",
">. c #C85400",
",. c #C44A00",
"<. c #C6640A",
"1. c #C96807",
"2. c #D86B03",
"3. c #CA780C",
"4. c #D7760A",
"5. c #CC6914",
"6. c #E27809",
"7. c #DB7A3C",
"8. c #CF7527",
"9. c #8C5249",
"0. c #9B6E45",
"q. c #90694D",
"w. c #B57744",
"e. c #807F7F",
"r. c #AD6362",
"t. c #C67B48",
"y. c #7A807F",
"u. c #BF823C",
"i. c #DC9708",
"p. c #D2860B",
"a. c #E88309",
"s. c #F88B05",
"d. c #E59704",
"f. c #F69501",
"g. c #F28A12",
"h. c #E9A807",
"j. c #F5A506",
"k. c #FAB502",
"l. c #E1B107",
"z. c #CB8639",
"x. c #E48637",
"c. c #FAC901",
"v. c #F9D501",
"b. c #F7DC01",
"n. c #EAD107",
"m. c #FBE700",
"M. c #F8FC00",
"N. c #82834B",
"B. c #888756",
"V. c #93925D",
"C. c #8F9158",
"Z. c #B68246",
"A. c #AC8248",
"S. c #9B9C66",
"D. c #969764",
"F. c #9F8566",
"G. c #AA9672",
"H. c #9DA566",
"J. c #A3A36B",
"K. c #ABAC6D",
"L. c #B8B678",
"P. c #B1B170",
"I. c #D78946",
"U. c #C69757",
"Y. c #D49D5B",
"T. c #DB9758",
"R. c #D08956",
"E. c #E1A65C",
"W. c #D29A63",
"Q. c #DDA568",
"!. c #DCB47B",
"~. c #CEAA72",
"^. c #E5B36F",
"/. c #E5B774",
"(. c #E8AD6A",
"). c #C2C27F",
"_. c #F4C574",
"`. c #7E8383",
"'. c #838584",
"]. c #8B8E8E",
"[. c #838A8B",
"{. c #8C9090",
"}. c #929394",
"|. c #949A9A",
" X c #9B9B9B",
".X c #928A84",
"XX c #B89B86",
"oX c #AFA59B",
"OX c #9BA1A1",
"+X c #A9ABAB",
"@X c #ADB2B1",
"#X c #B4B5B6",
"$X c #BBBCBC",
"%X c #B7BBBA",
"&X c #B9B0AE",
"*X c #E0BD82",
"=X c #D1B491",
"-X c #CACA83",
";X c #C5C680",
":X c #D3D48A",
">X c #D8DA8B",
",X c #CFD185",
"<X c #EBC689",
"1X c #F4CE8B",
"2X c #EFCD92",
"3X c #DFE190",
"4X c #FFE19B",
"5X c #E0E091",
"6X c #CDC2BB",
"7X c #F0CEA8",
"8X c #FFE7A7",
"9X c #BEC2C2",
"0X c #CBCDCD",
"qX c #C4C6C5",
"wX c #CED1D1",
"eX c #DADCDB",
"rX c #D4D6D6",
"tX c #D1CDC9",
"yX c #DEE1DF",
"uX c #F4EAD8",
"iX c #DFE1E1",
"pX c #E2E4E4",
"aX c #E9EAEA",
"sX c #EFF1F1",
"dX c #F4F4F4",
"fX c #FDFDFD",
/* pixels */
"                                                                                                                        ",
"                                                                                                                        ",
"                                                                                                                        ",
"                                                                                                                        ",
"                                                                                                                        ",
"                                                                                                                        ",
"                                                  @.4.                                                                  ",
"                                              #.  6.>.O.%.a.                                                            ",
"                                              1.%.s.@.@.i.h.p.                                                          ",
"                                            @.s.j.k.p.j.c.l.$.                                                          ",
"                                            @.j.c.b.m.m.h.4.4.p.                                                        ",
"                                           .5.v.v.m.M.m.d.i.n.c.                                                        ",
"                                          +.g.k.m.k.v.M.m.c.h.3.                                                        ",
"                                          &.n.m.f.v.j.k.c.f.4.+.                                                        ",
"                                        d.k.v.v.4.d.6.a.a.6.a.s.s.                                              y.|.    ",
"                                          d.k.j.1.8.5.2.I.T.x.2.5.                                            U }.wX    ",
"                                          <.s.a.>.I.R.T.Q.Q.t.,.O.                                          . E +XdX    ",
"                                          <.s.2.t.Y.U.~.<XQ.7.>.                                          . j ].0XdX    ",
"                                          g.g.#.W.=XF.~.<X^.7.,.                                        0 . E #XpX      ",
"                                          6.8.t.W.uX`.Z./.~.q.v                                       2 & . ' 9XdX      ",
"                                          5.-.Q.T.dXoXU./.=X~                                       % < . I  XwX        ",
"                                            =.T.E.7X<X1X4X/.0.                                    7 3 . . {.wXsX        ",
"                                            n  .z._.4X8X2XY.-.                                    = t . ' 9XeX          ",
"                                          } M K V E.1X/.K.O.                                    O > . . @XeX0X          ",
"                                        v | X.R `.;.Q.W.8.*.                                  @ . p . |.pXpX            ",
"                                        6 M ..{ G.-.w.T.Z.G                                 X 3 . . _ pXfX              ",
"                                      s h N } 9.XX7.0.~ H b                             = @ 3 @ . [ wXdXdX              ",
"                                      j k s x ..&X7XG.U , 8                           X & < . . ) 0XfXsX                ",
"                                      j k h N ..#XtX.Xk . *                         X < < . . U $XfXdXeX                ",
"                                    a h k h N .. XOX` 5 # *                       = < < . y _ OXsXfXpX                  ",
"                                    2 p l g V } W Y y . @ &                     . < < . . ' qXpXfXaX                    ",
"                                    < i p p B c $ . . @ + =                   = & # . a ` #XdXfXdX                      ",
"                                    1 i a p j , . 2 2 > & =                 = < @ X P `.%XaXfXfXeX                      ",
"                                    Z h i p l l < a y 3 & =               = - O . Y }.wXdXfXfXaX                        ",
"                                  Q _ Y . s k k l _ R B i &             7 - 2 . j  XiXfXfXfXfX                          ",
"                                  ) y.` . h k y '.pX0X'.a X         7 * : < 3 y ].rXfXfXfXfX                            ",
"                                  Z I j . a l I 0X6X$X`.P #       . @ 3 y . z +XpXdXfXfXsX0X                            ",
"                                7 1 3 3 3 > U $XoXr.R.0.h o . X . 3 + . . . |.pXfXfXfXiX$X                              ",
"                              C 1 o O . 3 Y }.%XW -.4.z.=.H y.y.D . . o Y +XeXdXfXfXeX@X                                ",
"                              . . - 2 < . R 9X Xw 9.3.E.^.Y.U.H.J . k ].9XaXdXfXfXyX%X                                  ",
"                            V.! q . . p ' +X$XR T P z.1X1X^.U.N.Z . W $XsXfXfXfXeX%X                                    ",
"                          ,X-XP.^ B . k  XrX+XI ] a u.1X1XE.$.V u   '.eXfXfXfXiX                                        ",
"                        ).).-XL.K./ B a F.#XOX_ T G *.!./.:.c : a     wXfXdXpX                                          ",
"                      ).P.D.V.V.V.S.^ f L ) ] ) : o.o.A.A.=.4 w h     $XpXeX                                            ",
"                    K.J.( S b C D V.H.^ . . Z / n &.%.n 4 & ; 5 p p                                                     ",
"                    J.J ; o t r . J D.D./ ^ J K.0.3.o.b . . # 5 i a                                                     ",
"                  -XK.f : e a 3 . d ^ J.).).V.D.B.V $ . < $ # 3 y y                                                     ",
"                  J.B.r @ a p 5 < 3 S J B.C.D.D 8 + . o # O X O 0 p 8                                                   ",
"                  H.^ . d d p 2 2 a 0 9 9 q S 3 X ; $ # @ @ O X 0 z h                                                   ",
"                  y.B.J e 2 i a a 0 < . . O - . @ @ @ O X @ X O 0 p p p                                                 ",
"                  J N.C.d e p p a 0 @ . @ O # o O # @ O O @ o X 0 h p p                                                 ",
"      5X          F N.C.S e h h i 0 & . O # & = = o O o # X @ @ X . . Z                                                 ",
"      >X3X        y.K.H.S e z p a i & % *         % * & o - X . 3 Y E .                                                 ",
"        :X>X    H.P.).N.$ 3 a 0 0 2 1 7               7 # . e I [ [.[ R                                                 ",
"          -X>X>X:X:XP.! R h i 3 < <                       . k [ |.{.] [.P                                               ",
"            -X:X,XL.^ [.+XY 2 <                                 |._ U [ h                                               ",
"              J.S.^ d }.#XR                                                                                             ",
"                    . .                                                                                                 ",
"                                                                                                                        ",
"                                                                                                                        "
};
