/* XPM */
static char *_2e4a00ad0fa414bfce6c20e7ac2dc46CYOwXztEoyuHelBQ[] = {
/* columns rows colors chars-per-pixel */
"60 60 221 2 ",
"   c None",
".  c #010101",
"X  c #010109",
"o  c #090409",
"O  c #090909",
"+  c #080805",
"@  c #140A07",
"#  c #0B120A",
"$  c #071D08",
"%  c #081907",
"&  c #18180C",
"*  c #080812",
"=  c #081315",
"-  c #131313",
";  c #1B1B1B",
":  c #181915",
">  c #140A15",
",  c #231C17",
"<  c #320E00",
"1  c #062305",
"2  c #073507",
"3  c #0E3612",
"4  c #272619",
"5  c #3A391A",
"6  c #111425",
"7  c #220535",
"8  c #1B2121",
"9  c #033636",
"0  c #232424",
"q  c #2C2C2C",
"w  c #262A2A",
"e  c #373425",
"r  c #2A3536",
"t  c #333333",
"y  c #3B3B3B",
"u  c #373A3A",
"i  c #342930",
"p  c #560600",
"a  c #4E0D0F",
"s  c #790C00",
"d  c #681903",
"f  c #79100E",
"g  c #522000",
"h  c #672B00",
"j  c #5D0B31",
"k  c #443A3A",
"l  c #4E332A",
"z  c #7C2321",
"x  c #005C00",
"c  c #004100",
"v  c #244202",
"b  c #006F09",
"n  c #004F21",
"m  c #2E7422",
"M  c #56411B",
"N  c #784705",
"B  c #6C4100",
"V  c #56572B",
"C  c #45423A",
"Z  c #5A5A33",
"A  c #4C4D33",
"S  c #656538",
"D  c #714C2D",
"F  c #3C4E53",
"G  c #424242",
"H  c #484B4B",
"J  c #4C5353",
"K  c #585B5B",
"L  c #5B664E",
"P  c #6C6C49",
"I  c #777748",
"U  c #7A7A54",
"Y  c #586467",
"T  c #666C6C",
"R  c #696D6E",
"E  c #6D7272",
"W  c #737B7B",
"Q  c #777A77",
"!  c #676F70",
"~  c #890F12",
"^  c #941514",
"/  c #8D100B",
"(  c #A61504",
")  c #9B2511",
"_  c #9B3B0F",
"`  c #A82708",
"'  c #BB2A0D",
"]  c #A73C1A",
"[  c #AB2610",
"{  c #962A29",
"}  c #C51B00",
"|  c #D21D00",
" . c #E82624",
".. c #985704",
"X. c #8F5005",
"o. c #AA4805",
"O. c #BE4500",
"+. c #AA5803",
"@. c #B34D0E",
"#. c #9D6016",
"$. c #B46B06",
"%. c #AA6000",
"&. c #AF6F2E",
"*. c #926F38",
"=. c #C44804",
"-. c #C55A0B",
";. c #D14E0A",
":. c #E84A05",
">. c #C66107",
",. c #D46E05",
"<. c #CB7301",
"1. c #C77704",
"2. c #D67804",
"3. c #CF7219",
"4. c #E67801",
"5. c #F67900",
"6. c #E17E1F",
"7. c #D6772F",
"8. c #847650",
"9. c #8B4F55",
"0. c #718151",
"q. c #7EA34F",
"w. c #7B807F",
"e. c #BE990D",
"r. c #B28338",
"t. c #D78206",
"y. c #D09E0A",
"u. c #E88602",
"i. c #F78B04",
"p. c #FF9501",
"a. c #F99603",
"s. c #EA8414",
"d. c #E59604",
"f. c #C6A10D",
"g. c #F5AE01",
"h. c #EDBC01",
"j. c #F5AF04",
"k. c #CD8131",
"l. c #FAC400",
"z. c #FBCC00",
"x. c #F4CA01",
"c. c #FED200",
"v. c #FFDA00",
"b. c #F5D501",
"n. c #F9EA00",
"m. c #FAF300",
"M. c #F7F200",
"N. c #8C8C59",
"B. c #95955E",
"V. c #B99C58",
"C. c #9C9B65",
"Z. c #9E9E68",
"A. c #888365",
"S. c #B59567",
"D. c #B98B68",
"F. c #9FA46A",
"G. c #A6A76D",
"H. c #B2B273",
"J. c #AEB275",
"K. c #C78658",
"L. c #D49450",
"P. c #E99C4D",
"I. c #E8A75B",
"U. c #E9A24E",
"Y. c #C79765",
"T. c #D39A6A",
"R. c #D4A76E",
"E. c #EFB165",
"W. c #E5B576",
"Q. c #F3BD74",
"!. c #C1C47E",
"~. c #FFC979",
"^. c #387E84",
"/. c #507E85",
"(. c #2B848B",
"). c #5D8889",
"_. c #7B8383",
"`. c #738080",
"'. c #848E8E",
"]. c #8B8A8A",
"[. c #8D9393",
"{. c #959B9A",
"}. c #8E8F90",
"|. c #A29387",
" X c #9EA6A6",
".X c #A4ACAC",
"XX c #A6ACAC",
"oX c #ACB3B3",
"OX c #BBBFBF",
"+X c #B4B7B7",
"@X c #E1B88E",
"#X c #C7B6AB",
"$X c #CFCE87",
"%X c #C4C882",
"&X c #D4CC89",
"*X c #D5D68A",
"=X c #DFDF90",
"-X c #FACA84",
";X c #F3CA89",
":X c #FDDE9E",
">X c #F7D595",
",X c #DFE08F",
"<X c #E1E191",
"1X c #F5F59E",
"2X c #FFE5A4",
"3X c #BEC3C3",
"4X c #C2C4C5",
"5X c #C8CACA",
"6X c #CED2D2",
"7X c #DBDDDD",
"8X c #D5D6D6",
"9X c #CCCDCC",
"0X c #E2D9D0",
"qX c #F9EED5",
"wX c #D5E1E3",
"eX c #ECECED",
"rX c #E3E4E4",
"tX c #EFF0F0",
"yX c #F5F5F5",
"uX c #FCFCFC",
"iX c #FBFCF8",
/* pixels */
"                                                                                                                        ",
"                                                                                                                        ",
"                                                                                                                        ",
"                                                                                                                        ",
"                                                                                                                        ",
"                                                @.6.                                                                    ",
"                                            ..X.p._   @.i.                                                              ",
"                                          2.,.2.p.) ' v.f.                                                              ",
"                                          -.5.b.g.x.j.v.O.~ )                                                           ",
"                                        ~ f.l.x.M.n.c.2.;.b.s.                                                          ",
"                                        [ u.z.M.l.M.m.d.x.v.>.                                                          ",
"                                        @.z.l.b.l.l.n.z.j.t.~                                                           ",
"                                      -.y.M.z.:.b.i.d.j.5.-.>.                                                          ",
"                                      a.c.g.z.' 4.u.=.7.7.p.p.u.                                                        ",
"                                      ) i.p.-.<.-.7.O.-XD.4.] ^                                                         ",
"                                        o.p.3.>.;XK.R.T.Y.4.]                                                     _.    ",
"                                      ~ i.s./ W.&.*.:X>XI.=.s.                                                  J {.    ",
"                                      u.p.-.` W.0XZ K.-XV.p 3.                                                . {.7X    ",
"                                      6.=.K.K.R.uX7 <.>XA..                                                 : . OXuX    ",
"                                        s K.I.W.qXS.Q.2XY.@                                               : . W 7X      ",
"                                        b O.,.W.>X:X:X>XP.                                              - . u 6XiX      ",
"                                        < d j +.;X>X>XR..                                             o O . XXtX        ",
"                                      p  .X /.Y t.;Xh 1...                                        b $ ; . W yX.X        ",
"                                      . ^ | /.T.d I.-X+.n                                       c # ; . F 7XOX          ",
"                                    y 9 a ( /.T.<.B 8.g                                       $ 1 > . . OXuX            ",
"                                    i 9 f } (.L.u.W X X                                   1 1 o - . . {.uXeX            ",
"                                  0 t r l | 9.#XP.Q = O                                 2 O o - . J Q eXiX              ",
"                                  t k k 9 { ( wX@XX X *                               % o O + . r +X6XuX5X              ",
"                                  0 u y 9 z s 9XoXX + o                             o O O . q w {.iXuX7X                ",
"                                  . i k 9 ( } ).K . O o                         O o o + - . T  XrXuXeX                  ",
"                                  . t ; u t < u , . O o                       O O O O . - '.OXuXyXuXXX                  ",
"                                x . t ; t u 6 . O o O o $                 O O O O . . ! '.eXtXuXuX5X                    ",
"                                Y T + 0 t k . . . . O O o               # + O - . F T 5XrXiXuXeX4X                      ",
"                                R _.. 0 G . }.8X3X. . O O           $ O - . . . J {.7XtXuXuXuXoX                        ",
"                              c R _.. q - K 9X0X8XY . O o         1 o O . y K Y 4X7XuXiXuXuX6X                          ",
"        <X=X                  . K E . - , OX#Xs +.|.. = . x   o O o . 0 r [.4X3XuXuXiXuXeXeX                            ",
"      <X,X,X*X              o O . . ; . ].7X. k.d.2.k < A , . O o . 0 K .X8XuXuXiXuXyXiXXX                              ",
"    =X    q.1X*X            O O + O - . ].7X. D 2.P.-X+.$XS . & - . '.oXuXyXyXiXyXuX8X_.                                ",
"            $X*X          . + O O O . F 7X. w.Y 1.>X:XE.V.,Xe . T '.rXyXiXyXiXuXiX X                                    ",
"              <X          q : . o + . C tX'.w.* t.2X&X3.r.J.C . +XyXyXuXyXuXuXuX3X                                      ",
"              $X$X      . t ; . O O . t OXY J %.#.E.U.%.M L m   W eXuXyXuXtX4X                                          ",
"              !.H.      ; q O + o + . 4 F p ..$.N +.$.N . . x   . 7XuXuX8X3X                                            ",
"              G.N.    . t 0 - O O O O . Z *.$.X.N . X X @ ; o     4XtXrX`.                                              ",
"                B.    o q ; t - + # . Z J.T ..$.X . O O . t ;       '.                                                  ",
"                G.U . 0 q . t O O & . $Xe . X X O O O + . O t +                                                         ",
"                C.I . 0 w q ; ; t & . *XS . O O o O o O o - t .                                                         ",
"                G.I 6 8 w q : - C . H.!.S . O O O O O + + O u w                                                         ",
"                0.C.Z X q q 8 i . N.$XN.4 + O O O . O O + o 0 t .                                                       ",
"                v G.I P . 8 . C U H.J.5 . O O O * o + O O . : t ; 0                                                     ",
"                1 U N.N.P U P U Z.C.S . o O O O + + O O O . ; q ; q                                                     ",
"                3 i N.I G.G.G.C.V V 4 . O # + + O + O o + . ; t . t w                                                   ",
"                t * + S Z Z Z S V . + O       # O + O + o . - u 0 w u                                                   ",
"                t ; t . q 0 . t . O o           $ o O O o O O O O + O                                                   ",
"                # - t ; k 8 . - o 2               O O O . : [.{.! . . %                                                 ",
"              . . . . . t 0 . +                         . ; .XoXE E {.-                                                 ",
"              5X+Xw 9X! . 0                                   _.H K E O                                                 ",
"              OXXXw 5XW .                                           .                                                   ",
"                . .                                                                                                     ",
"                                                                                                                        ",
"                                                                                                                        "
};
