/* XPM */
static char *_51a1d9741f44b00b5aeb5dcb09b97b7AhWvfkoZgzLwTyYF[] = {
/* columns rows colors chars-per-pixel */
"60 60 210 2 ",
"   c None",
".  c #010101",
"X  c #010009",
"o  c #090409",
"O  c #090909",
"+  c #030B08",
"@  c #190501",
"#  c #091409",
"$  c #071B08",
"%  c #061805",
"&  c #161406",
"*  c #0B0B15",
"=  c #110C12",
"-  c #0B1613",
";  c #131413",
":  c #1C1C1C",
">  c #181615",
",  c #2A110D",
"<  c #032203",
"1  c #072608",
"2  c #043207",
"3  c #162417",
"4  c #0C2914",
"5  c #2C2C1B",
"6  c #373716",
"7  c #2E3302",
"8  c #1B1B23",
"9  c #211E21",
"0  c #002E2D",
"q  c #003433",
"w  c #232323",
"e  c #2A2A2B",
"r  c #272827",
"t  c #323232",
"y  c #3B3A34",
"u  c #3A3B3A",
"i  c #333A3C",
"p  c #322E2C",
"a  c #400300",
"s  c #660900",
"d  c #422304",
"f  c #632600",
"g  c #511A21",
"h  c #433939",
"j  c #044405",
"k  c #3E500D",
"l  c #1F5032",
"z  c #3D402F",
"x  c #2B6525",
"c  c #545109",
"v  c #49432A",
"b  c #54552A",
"n  c #4E4E37",
"m  c #585836",
"M  c #564030",
"N  c #7A5822",
"B  c #6A6A39",
"V  c #71713F",
"C  c #00284E",
"Z  c #3A4343",
"A  c #2F4345",
"S  c #005567",
"D  c #464E4E",
"F  c #474848",
"G  c #4C5151",
"H  c #555A5A",
"J  c #536557",
"K  c #676745",
"L  c #767647",
"P  c #7E7F55",
"I  c #4B5E65",
"U  c #575D60",
"Y  c #5B6364",
"T  c #636B6A",
"R  c #676868",
"E  c #767A7A",
"W  c #6B4B4C",
"Q  c #860F04",
"!  c #9D1305",
"~  c #840E12",
"^  c #991711",
"/  c #A41405",
"(  c #B21700",
")  c #9C360F",
"_  c #86230B",
"`  c #B53406",
"'  c #AE300D",
"]  c #A22029",
"[  c #C91B00",
"{  c #CE2928",
"}  c #874400",
"|  c #9A4B00",
" . c #965400",
".. c #A45200",
"X. c #A15D00",
"o. c #B85506",
"O. c #B44812",
"+. c #A76404",
"@. c #B56802",
"#. c #B16B0D",
"$. c #915E2A",
"%. c #A84A33",
"&. c #AB7830",
"*. c #C24B00",
"=. c #C65F07",
"-. c #C55F1B",
";. c #CA6705",
":. c #DA6D00",
">. c #D46708",
",. c #C47707",
"<. c #D77E05",
"1. c #CD6F15",
"2. c #E86F08",
"3. c #E47508",
"4. c #EA770E",
"5. c #D27620",
"6. c #B77B43",
"7. c #926467",
"8. c #78807F",
"9. c #BD893C",
"0. c #D98F05",
"q. c #E78702",
"w. c #F68A05",
"e. c #FD9401",
"r. c #FC9704",
"t. c #E59309",
"y. c #CEAA0C",
"u. c #EBA803",
"i. c #FAA901",
"p. c #F3B302",
"a. c #F9BC01",
"s. c #EFB902",
"d. c #CD8232",
"f. c #E09023",
"g. c #E7C707",
"h. c #FCC200",
"j. c #FBCC00",
"k. c #F7C900",
"l. c #F7D401",
"z. c #F9E600",
"x. c #FAF600",
"c. c #848555",
"v. c #A28452",
"b. c #9F9F6A",
"n. c #AF8D67",
"m. c #9DA06A",
"M. c #A3A36B",
"N. c #A7A86C",
"B. c #AAAA71",
"V. c #B6B879",
"C. c #D08F52",
"Z. c #C1A65F",
"A. c #E6A454",
"S. c #F5A14B",
"D. c #D59E6C",
"F. c #D9AE7B",
"G. c #D9B277",
"H. c #F6BD75",
"J. c #E8B46D",
"K. c #C1C17D",
"L. c #FFCA7F",
"P. c #798485",
"I. c #8C8E8E",
"U. c #868889",
"Y. c #8C9795",
"T. c #969A99",
"R. c #94908B",
"E. c #97A09F",
"W. c #9BA3A3",
"Q. c #ABACAC",
"!. c #A3A3A3",
"~. c #ADB3B3",
"^. c #B3B6B6",
"/. c #B7BBBB",
"(. c #BBBDBD",
"). c #D1B681",
"_. c #F4BB94",
"`. c #BAC0BF",
"'. c #CCCD85",
"]. c #C6C680",
"[. c #DADB8C",
"{. c #D2D288",
"}. c #EBC385",
"|. c #F6C985",
" X c #FBD38E",
".X c #FADC9C",
"XX c #F7D595",
"oX c #E9D49A",
"OX c #E2E292",
"+X c #ECED98",
"@X c #F1F29B",
"#X c #C3C2B9",
"$X c #F4DBAF",
"%X c #FFE4AF",
"&X c #B1BFC9",
"*X c #BDC1C1",
"=X c #CACDCD",
"-X c #C4C6C6",
";X c #D4D5D5",
":X c #D5DBDA",
">X c #DCDDDD",
",X c #CCD0D0",
"<X c #FFEECC",
"1X c #DFE1E1",
"2X c #E3E4E4",
"3X c #ECEDED",
"4X c #EBE9E8",
"5X c #F5F5F5",
"6X c #FDFDFD",
"7X c #F2EFEC",
/* pixels */
"                                                                                                                        ",
"                                                                                                                        ",
"                                                                                                                        ",
"                                                                                                                        ",
"                                                                                                                        ",
"                                                                                                                        ",
"                                                    >.                                                                  ",
"                                              ) c ;.3.k ~ 3.                                                            ",
"                                              3.O.w.>.~ i.g.                                                            ",
"                                              g.p.a.s.u.l.t.~ ^                                                         ",
"                                            ~ t.i.x.k.j.p./ y.t.                                                        ",
"                                            O.2.h.j.h.x.s.,.l.q.                                                        ",
"                                            <.h.l.w.k.z.z.a.p.^                                                         ",
"                                          ' y.x.w.u.k.2.l.w.>.O.                                                        ",
"                                          p.j.k.u.` e.o.3.-.e.e.q.                                                      ",
"                                          o.e.e.=.;.:.*.S.F.:.-.^                                               Y.W.    ",
"                                            >.r.` A.D.D.C.F.:.O.                                              . :X      ",
"                                          ) e.:.%.J.} }.XXF.( 4.                                          w . T 5X      ",
"                                          3.w.o.o.$XU.&.|.F.a 5.                                          . . =X2X      ",
"                                          w.*.C.@.<X&Xs H.)..                                           3 . T.2X        ",
"                                            Q G.d.%X#X0..X).@                                         = . + 2X=X        ",
"                                            c =.f.XX.X.X.XH...                                      o ; . Z 1X          ",
"                                            + _ s A..X.X|.f                                       o O O . *X2X          ",
"                                          / { 4 P.} L.n.+.#.                                    o O : . I.3XT.          ",
"                                          , ^ g T.+.&.|.d.c                                 $ $ o O . D 1X/.            ",
"                                        p 0 / ] Y.<.| v.$.<                               2 o O . w Y /.6X              ",
"                                        h q Q ! P._.6.C . 3                             j < o . . E ,X5X5X              ",
"                                      t u h - / 7.4Xn.I . 4                           2 o = . i D -X6X5X                ",
"                                      r u h q [ 7.:XI . > $                         O o O ; . U./.5X6X=X                ",
"                                      . t h 0 Q W P.. = O $                       o O O ; > Z ;X6X6X2X                  ",
"                                      . t 9 u 9 > u . O o $                     o O o > . P.~.6X6X5X                    ",
"                                      . t : u 3 . ; o O o $                 1 # o O = . H 1X5X6X6X=X                    ",
"                                      . t : u t O . O O o 1               $ # o ; . w T (.6X6X6X4X                      ",
"                                    J H > w u u r . . . ; %             $ o O . . G U.;X3X6X6X;X                        ",
"                                    T E . r u t u Q.~.H . >           O o O . e D ~.:X6X6X6X;X                          ",
"                                  j T E . r u O I.4X7XI.. :       1 o O . . t E /.3X6X6X6X3X                            ",
"                                  . Y E . r t G >X} _ R.i . 2   O o o . w r T.-X6X6X6X5X5X                              ",
"                                $ o O O . t . ;XE | t.q.d X O O O O > . R E.3X6X5X5X6X>X                                ",
"                                o O o o w . ~.^.. d ,.q.}...V.V.. . 8.P./.5X5X6X6X6X^.                                  ",
"                              r w . O o e . /.^.. P...H..XJ.Z.c.3 . =X3X3X6X5X6X3X^.                                    ",
"                              t r . O ; . R -XF E S |  XoXC.9.l     2X6X6X6X6X=X`.                                      ",
"                            : u ; . . X . I.>XA U.X. .J. Xo.N % x   Q.6X6X3X:X                                          ",
"        [.[.                w w . 8.c.K b R *XP.M q.+. .G. .X 5 X   . :X5X*X                                            ",
"        OX[.              t * n K [.{.m.N.6 . 7 } @.@.. . X @ t =                                                       ",
"        OX                y . M.+XN.b B V c.M.m.;.,.X , O O . t = <                                                     ",
"        @X              y X L {.B.L r & 5 b L V.v @ + O O O . > t .                                                     ",
"        OX              e X '.M.V v e . O > 5 n - X O O O O o > t .                                                     ",
"        '.            z . B.K.K 6 > t . O X . . o O O O O O o ; u 9 <                                                   ",
"        [.V.          . 7.'.c.r 8 w w . O O O O O O O O O O O o t r :                                                   ",
"          [.          y '.N.6 e r t o O O O O O o O O O O O O . w r t t                                                 ",
"          {.N.      P B.].b o u : t O O O O o O # O O O O O O . w r e t                                                 ",
"          [.V.b.    [.{.L & 8 e . t O o O O o     O O O O O O . : r r 3                                                 ",
"            V L B.B.M.B m * y e . t O O o           o O O O O O O o #                                                   ",
"                L L L m X = u e . ; o j               $ o O . ; Y.W.G .                                                 ",
"                    . & . . r t . #                       > . I.~.P.P.I..                                               ",
"                    =XU !.Q.. w                                 I.F H T .                                               ",
"                    (.H !.(..                                                                                           ",
"                    . .                                                                                                 ",
"                                                                                                                        ",
"                                                                                                                        "
};
