/* XPM */
static char *_d7e2608c8be4b78d0bf1f84fe71fec67iktjdMYQrcCgabA[] = {
/* columns rows colors chars-per-pixel */
"60 60 60 1 ",
"  c None",
". c #010101",
"X c #080707",
"o c #0C0D0C",
"O c #140E0C",
"+ c #15130F",
"@ c #091010",
"# c #151412",
"$ c #1A1613",
"% c #1D1915",
"& c #1F1B18",
"* c #211B16",
"= c #231E1A",
"- c #26211D",
"; c #2A231E",
": c #252422",
"> c #2D2621",
", c #2F2823",
"< c #2E2D2C",
"1 c #302722",
"2 c #332A25",
"3 c #382C27",
"4 c #352D29",
"5 c #392E29",
"6 c #37312B",
"7 c #3C322C",
"8 c #363431",
"9 c #3F3631",
"0 c #3D3834",
"q c #41352F",
"w c #423730",
"e c #453A33",
"r c #4A3D36",
"t c #473F38",
"y c #4B3F38",
"u c #4C4037",
"i c #4D413A",
"p c #51453D",
"a c #53483F",
"s c #534740",
"d c #554A42",
"f c #5A4D45",
"g c #5C4F48",
"h c #5C5047",
"j c #5E5149",
"k c #62554C",
"l c #65584F",
"z c #675950",
"x c #6B5D54",
"c c #6E6057",
"v c #6F6158",
"b c #706157",
"n c #72645A",
"m c #76685D",
"M c #786A5F",
"N c #7C6D62",
"B c #7F7064",
"V c #817366",
"C c #857669",
"Z c #87796A",
/* pixels */
"     +4saiiiiit7   6pfddpps0   O#  .#2wuiiutw;.,pjhi8#.     ",
" ff7.6cNnzzxxvnnd<hBNmvvccvnh2.$=$ixnNNNBNNNMmheusssidccp   ",
" cNbi4zNmlpyfxNvfhNBmbbnvzjmx9.:rkmNmmNNmczxxmmnjp0scnmBmpO ",
" nVVx7tnVlwwhxxfjmNcxbbbzppvzu0hxNnkfjcvzjfipaxmmjiphljcxd* ",
" lcxjt7nVmlxNNkdvNxkzxbzdwilidvBNxyqwgbbxcczfe2hmvja66eew6= ",
" ipw,9jvmNVNnnfknvfiiffaeedtsxNmxgeejbbbvnNBNxdww7fxh4eu72  ",
" ,we6wzbvmNnxnxdffuwyeyrppewzvxxbbkfzbbbvnNBVNckapkbbe95tpd ",
" #-=,ipjxvxbbzky79uuiyeeer;9xvvvbbbbbbnbzlcmNNbccbbchw2;wap ",
" ts9-yyydklzkpir55yyw9555q34gbxllbbbbbzgpydlbmnbbcxfw*.-we7 ",
" kml73ieeidduwer74ew9ydsddgsizxffklxkfyryyypfzxxkhpq22wdkp% ",
" bVmd,tireeeryrrq;2yfzmNnbbnsszzfypayerakgyeydfaurw37dxMVv4 ",
" xNmkt7erryrirrpw>txvmNCNnxNjesnbpeqrakbbxyeyeerue65rknmZVj ",
" bNvhfs2rperrype>wzNxvNVVnxmzt9gxarepxnbxprriiue3+-euupdmVn ",
" xNcsfz95rpipeq,-pvxxnNCVnxxvf27pireyknbaryyu726yw26uryehmc ",
" hNvfzmjq3eeq3w77sxnxNNVVNbnnkw2qqyrykbgwryw6whznmk9qrrqyff ",
" wlvxvBNke622adywdxnxxNnNxxvxkd9*3qwragyqqq=9cnnBZBh2tpryy7 ",
" *axbmVVnlt*wmlpydxnbbbzkfgkfffw;w6357wwuu:$hVndzBVx21rype= ",
" ;rfzbnVNNxtpVxzkdgvvvzfeerrreqqfcza7;6fkxsuxNf7jbbf3.1we3  ",
" errygxbxxxjinNCNs8gbxfrerryq1yxMVCBxiajzmzpjnxxbzfe4:9e2X  ",
" ryyeypgfskzdzNVNg17ddyryyyy23fNVVVMxfkcxmzuwzbbzdywwkxzje  ",
" qriyyeytedjssvnzs5;5eyyyyyy>7dxbczkyrkxzcle1ikjpyw7ixbmnz7 ",
" ;qeyyyeeeypewfkdye;&5werrye=>rsape3;3uaddai6;wyyrq7idllxxi ",
" :eywyryyyrw>3rrryr1-2555575&-5eq36ee75rewyrq%%wyw6eresddfs ",
" ekd1rrrryyq#3rryye1qe733123>>117uhvbd2eiiy76w322=2riskzzfe ",
" ils,7puyye2=>wrew13gkffgkkxd2$7kbMVVMk3yr3wkxxfdsu62pznbj3 ",
" pdi2-yew71177:,42wkMNNmNNNNd1yxVVZZVVxr>5sxMVVMnnckw,ekje= ",
" we3*$1212wifw=17pzNVNNmNNNkrwgNVVmmxkhu7gxnmVVVCCVNvsww7,  ",
" 1-3eteeypgxlw2efbVCmbvvxzp7wrgnmbfairredxbkflxmNBVCCnku-   ",
"  *ylxlxxxxnzw6yzNCnxxxxly,27wikxfeqweeqsjdrerpdkxnmNNmke   ",
" OqplmNNNnnNlw7yzmbkkffse1ey3efzaqerryyw7werrppyrpdffkzky,  ",
"  qrylNVVVVBxe7fmNnlkdt37rresxNxfpfkzzkp7eyryppppiyyryyw7,  ",
"  ;wypzmNNVNz3unVCNbvbky3ryfznNnxxxmNNbgq337eyyrrrrwww75:   ",
" ::3erplbbxkr3dmVVVnxvbf7wfxnNNmxbNVBNnf9dd924347767eidgkd  ",
" 8<:7iepfki2=qdzmnblfgzkwqlbNNmbbvNVNNxi8zxkieye2;37edkzvk4 ",
" 06-1qyrrr7=;yrafgdyeedpwekxNNmbxbnVNmzy7fxnxzxf06weeyipds, ",
" :,472qiiqqipqeeewyereq12yxvbmbkflvnmnke7eiknnNjsjjsy722=@o ",
" #2ikjtww7gNmi7rpyrw55*o2dxnvlfywlmbzfe:4yyygxzyjmBNNnj7:64 ",
" =7dbCvw$imZVxwqwq5yyyw::rdllfyerfzgw=o@#-39ey9izmBCVNnj8:: ",
" 4ypzVVlydmVCNs-=ejlxkkfw2radyeyrpyq22eiy73732$0kbNBNnmxs-  ",
"  eepkNNxdlmNmf,9kvvvmnxgw7erryrrw3efzvbbzdipse4szxxcxlls,  ",
"  2qeejmnkdzbkyuznmxNNnnvkewyyyyeeaxnVVVVVnzxbzwwpddfhpyq   ",
"  rrwyekbzfjk72jnbxNVNNNmnfweyt6;ybnnVVVVVmbbnbs39yrrw32-   ",
" fMz3eyjnzdjxftdxbmNBBVVNvxt276%*egxbnMVMmcbbxbxy3eyq43yp   ",
" dxkw3plmdyznbxsfzxbNNVVNnvw;-==51wpgkxnmbbcvxvNf62337qkld  ",
"*rayw5dvzyekxxbd2wfjzbmmnxg9q73ud31eypdgzxzkgzbbd67rrpfmnk  ",
" qeq2wsks12pddji2;7rddkkzg9whfjcna15errydfauydzj73pkllxNNk  ",
" 2e7-wee549w5e5efd77yeepay-dxxnNVxy,qryeeeeeeyp7=elbbbmNmk= ",
"  22,5etfjkft9,izxd23yryyq2kbxxmNbzw=5ypyyrrryw*5gbmNVNNba# ",
"  ;qpfbmmclzxp9dfdf3479yy27xcdpzmbbfe622ryipyq=3gbNBBCBNxu% ",
" 7wrdbNVxpqpxxieytdzxs72-$pbkrulmxzskcht2:7eqqpzxNBBBBNvfq6 ",
" urikmMmkdidlbfw3ykBVnkp7#ubkyyhkfryzmmvjy71=wlbbmBCBBci7ei ",
",urijbbxxbnncmky2exNVNnxkiexzdrprw;qdlcnvzge=2dzxnnNBBj42yt ",
"=rrrakzxnVCCBmvp17kbnmnnnxikxfeee3;eyeydklxke#1pkklxnnf2qu2 ",
" rireragxnNVBNbi2qakvvbxxxpaxgrye1qyyeeqwrakj72ryppashi776  ",
" 3riyrerigxnnvf41eryfzxjpi35fare71rrrrrrreqifdqrereeeyiw2$  ",
"  1qyyrreyfkft37q77rispirq$;paie*;yppyyyyirisy7rireyeeyi6   ",
"   -3rpeerpy2,7ere33errre1  7ir7  7wrpiyiyrr61-7ypyyuuipe,  ",
"    $5rpypy3.2pffp2o7rirq   ;77    17qqwwq73=  -qerrurrue2  ",
"     ;riyr5*  fzku   9y9               =:*       =15q7372   ",
"      +13                                                   "
};
